<?xml version="1.0" encoding="UTF-8"?>
<svg xmlns="http://www.w3.org/2000/svg" xmlns:xlink="http://www.w3.org/1999/xlink" viewBox="0 0 1962 240.21">
  <defs>
    <style>
      .cls-1 {
        fill: none;
      }

      .cls-2 {
        clip-path: url(#clippath);
      }

      .cls-3 {
        fill: #876249;
      }

      .cls-4 {
        fill: #8c725e;
      }

      .cls-5 {
        fill: #a8825d;
      }

      .cls-6 {
        fill: #ccc;
      }

      .cls-7 {
        fill: #afafaf;
      }

      .cls-8 {
        fill: #494949;
      }

      .cls-9 {
        fill: #604e3c;
      }

      .cls-10 {
        fill: #796b3f;
      }

      .cls-11 {
        clip-path: url(#clippath-1);
      }
    </style>
    <clipPath id="clippath">
      <polygon class="cls-1" points="1468.67 170.23 1489.89 227.3 1452.28 227.3 1452.28 170.23 1468.67 170.23"/>
    </clipPath>
    <clipPath id="clippath-1">
      <polygon class="cls-1" points="1468.67 170.23 1489.89 227.3 1518.37 202.73 1481.09 159.52 1468.67 170.23"/>
    </clipPath>
  </defs>
  <g id="Bom">
    <path class="cls-6" d="m683,74.76c16.94,0,33.89,0,50.83,0,401.47,0,802.94,0,1204.41,0,.07,15.14.14,30.28.22,45.41H683v-45.41Z"/>
    <path class="cls-6" d="m0,74.76c16.94,0,33.89,0,50.83,0,401.47,0,802.94,0,1204.41,0,.07,15.14.14,30.28.22,45.41H0v-45.41Z"/>
    <path class="cls-6" d="m745.12,89.11l5.88,11.77"/>
    <path class="cls-10" d="m744.92,75.46h80.56c1.6-.29,3.97-.53,6.71,0,8.8,1.7,16.75,10.3,17.49,20.03.83,10.91-7.51,21.83-20.03,24.38h-84.47c9.55-3.42,15.88-12.58,15.67-22.64-.2-9.82-6.58-18.55-15.94-21.77Z"/>
    <path class="cls-10" d="m394.92,75.46h80.56c1.6-.29,3.97-.53,6.71,0,8.8,1.7,16.75,10.3,17.49,20.03.83,10.91-7.51,21.83-20.03,24.38h-84.47c9.55-3.42,15.88-12.58,15.67-22.64-.2-9.82-6.58-18.55-15.94-21.77Z"/>
    <path class="cls-10" d="m75.92,75.46h80.56c1.6-.29,3.97-.53,6.71,0,8.8,1.7,16.75,10.3,17.49,20.03.83,10.91-7.51,21.83-20.03,24.38h-84.47c9.55-3.42,15.88-12.58,15.67-22.64-.2-9.82-6.58-18.55-15.94-21.77Z"/>
    <path class="cls-10" d="m229.92,75.46h80.56c1.6-.29,3.97-.53,6.71,0,8.8,1.7,16.75,10.3,17.49,20.03.83,10.91-7.51,21.83-20.03,24.38h-84.47c9.55-3.42,15.88-12.58,15.67-22.64-.2-9.82-6.58-18.55-15.94-21.77Z"/>
    <path class="cls-10" d="m574.92,75.46h80.56c1.6-.29,3.97-.53,6.71,0,8.8,1.7,16.75,10.3,17.49,20.03.83,10.91-7.51,21.83-20.03,24.38h-84.47c9.55-3.42,15.88-12.58,15.67-22.64-.2-9.82-6.58-18.55-15.94-21.77Z"/>
    <path class="cls-10" d="m1857.18,75.46h80.56c1.6-.29,3.97-.53,6.71,0,8.8,1.7,16.75,10.3,17.49,20.03.83,10.91-7.51,21.83-20.03,24.38h-84.47c9.55-3.42,15.88-12.58,15.67-22.64-.2-9.82-6.58-18.55-15.94-21.77Z"/>
    <path class="cls-10" d="m914.93,75.46h80.56c1.6-.29,3.97-.53,6.71,0,8.8,1.7,16.75,10.3,17.49,20.03.83,10.91-7.51,21.83-20.03,24.38h-84.47c9.55-3.42,15.88-12.58,15.67-22.64-.2-9.82-6.58-18.55-15.94-21.77Z"/>
    <path class="cls-10" d="m1211.14,75.46h80.56c1.6-.29,3.97-.53,6.71,0,8.8,1.7,16.75,10.3,17.49,20.03.83,10.91-7.51,21.83-20.03,24.38h-84.47c9.55-3.42,15.88-12.58,15.67-22.64-.2-9.82-6.58-18.55-15.94-21.77Z"/>
    <path class="cls-10" d="m1370.69,75.46h80.56c1.6-.29,3.97-.53,6.71,0,8.8,1.7,16.75,10.3,17.49,20.03.83,10.91-7.51,21.83-20.03,24.38h-84.47c9.55-3.42,15.88-12.58,15.67-22.64-.2-9.82-6.58-18.55-15.94-21.77Z"/>
    <path class="cls-10" d="m1062.71,75.46h80.56c1.6-.29,3.97-.53,6.71,0,8.8,1.7,16.75,10.3,17.49,20.03.83,10.91-7.51,21.83-20.03,24.38h-84.47c9.55-3.42,15.88-12.58,15.67-22.64-.2-9.82-6.58-18.55-15.94-21.77Z"/>
    <path class="cls-10" d="m1538.74,75.46h80.56c1.6-.29,3.97-.53,6.71,0,8.8,1.7,16.75,10.3,17.49,20.03.83,10.91-7.51,21.83-20.03,24.38h-84.47c9.55-3.42,15.88-12.58,15.67-22.64-.2-9.82-6.58-18.55-15.94-21.77Z"/>
    <path class="cls-10" d="m1702.87,75.46h80.56c1.6-.29,3.97-.53,6.71,0,8.8,1.7,16.75,10.3,17.49,20.03.83,10.91-7.51,21.83-20.03,24.38h-84.47c9.55-3.42,15.88-12.58,15.67-22.64-.2-9.82-6.58-18.55-15.94-21.77Z"/>
  </g>
  <g id="Saddel">
    <g>
      <path class="cls-3" d="m1415.31,67.53c4.51-12.4,17.28-17.52,17.93-17.77,12.86-4.94,23.37,1.97,42.63,7.09,3.84,1.02,26.41,6.87,47.63,5.06,28.37-2.42,61.84-19.18,95.87-36.22,2.41-1.21,8.36-4.22,13.59-1.95,6.33,2.74,9.04,11.6,9.17,17.84.29,14.36-12.71,25.05-16.44,28.12-38.4,31.59-103.17,1.32-114.84,23.74-1.28,2.46.17,10.3,3.07,25.98,6.54,35.37,11.56,40.89,10.76,56.59-.37,7.25-1.24,24.34-13.11,37.55-21.4,23.83-60.24,14.64-62.04,14.19-27.37-6.89-54.26-31.56-53.58-55.73.7-24.94,31.42-29.96,30.11-57.17-.97-20.16-16.81-30.69-10.76-47.34Z"/>
      <path class="cls-4" d="m1406.79,49.59c4.51-12.4,17.28-17.52,17.93-17.77,12.86-4.94,23.37,1.97,42.63,7.09,3.84,1.02,26.41,6.87,47.63,5.06,28.37-2.42,61.84-19.18,95.87-36.22,2.41-1.21,8.36-4.22,13.59-1.95,6.33,2.74,9.04,11.6,9.17,17.84.28,13.96-12.02,24.45-16.44,28.12-35.5,29.44-84.84,6.85-95.79,27.62-4.62,8.78.08,20.63,7.7,39.85,8.04,20.28,14.83,22.25,18.24,35.04,7.67,28.73-16.28,57.39-17.35,58.64-21.23,24.72-59.95,35.2-93.48,20.68-34.27-14.84-54.24-51.97-49.06-79.5,4.98-26.47,31.36-31.22,30.11-57.17-.97-20.16-16.81-30.69-10.76-47.34Z"/>
      <g>
        <g id="_Mirror_Repeat_" data-name="&amp;lt;Mirror Repeat&amp;gt;">
          <g class="cls-2">
            <path class="cls-8" d="m1476.08,170.23c-4.54,3.32-9.72,7.66-14.63,13.08-4.37,4.83-6.94,8.73-8.22,13.52-.49,1.81-2.21,8.62.68,16.1,1.94,5.03,5.15,8.22,7.95,11.02,10.23,10.2,33.53-5.8,32.72-9.44-.37-1.66-5.53-2.2-8.97-1.88-6.78.63-8.61,4.79-13.88,4.27-3.16-.31-6.18-2.17-7.89-4.58-4.08-5.74-.34-13.99,1.12-17.21,3.46-7.64,9.52-11.79,12.73-13.63"/>
          </g>
        </g>
        <g id="_Mirror_Repeat_-2" data-name="&amp;lt;Mirror Repeat&amp;gt;">
          <g class="cls-11">
            <path class="cls-8" d="m1463.06,175.07c5.6-.45,12.36-.55,19.62.35,6.46.8,10.96,2.08,15.06,4.87,1.55,1.06,7.3,5.08,10,12.63,1.82,5.08,1.48,9.59,1.18,13.54-1.09,14.4-29.18,17.51-30.94,14.22-.8-1.5,2.75-5.28,5.56-7.28,5.55-3.95,9.65-1.99,13.3-5.83,2.19-2.3,3.26-5.68,2.98-8.62-.66-7.01-8.88-10.82-12.08-12.3-7.61-3.52-14.91-2.71-18.54-2.01"/>
          </g>
        </g>
      </g>
      <path class="cls-5" d="m1446.86,80.6c3.59-4.64,16.95-6.59,22.41-2.91,2.89,1.95,1.9,4.34,1.35,18.27-.07,1.71-.36,9.66-.15,16.64.22,7.3.98,12.72,1.59,17,1.88,13.15,3.14,11.75,6.14,28.05,3.14,17.08,1.93,19.56,5.95,23.77.86.9,2.84,2.79,1.93,4.65-1.47,3.02-10.27,5.37-15.15,3.41-4.24-1.71-2.75-5.56-5.82-17.01-1.96-7.3-2.86-6.85-5.11-14.96-1.21-4.36-1.67-7.13-3.29-17.07-2.39-14.67-3.59-22-3.83-23.76-2.92-20.83-1.58-19.76-3.55-24.73-2.33-5.85-4.66-8.51-2.47-11.34Z"/>
      <path class="cls-9" d="m1407.43,44.88c.35-.86,5.43-12.97,17.93-17.77,12.86-4.94,23.37,1.97,42.63,7.09,3.84,1.02,26.41,6.87,47.63,5.06,28.37-2.42,61.84-19.18,95.87-36.22,4.72-2.36,11.58-4.37,13.59-1.95,4.11,4.94-7.68,31.26-29.01,41.82-24.34,12.04-64.2,5.08-85.53,6.99-2.99.27-8.51.97-13.87,4.63-2.78,1.9-4.41,3.84-5.82,5.46,0,0-6.54,7.49-15.47,15.44-11.72,10.44-30.93,7.85-36.11,7.15-8.07-1.09-26.21-3.53-32.19-17.18-4.03-9.2-.42-18.6.36-20.53Z"/>
      <circle class="cls-7" cx="1428.53" cy="62.99" r="6.54"/>
    </g>
  </g>
</svg>