<?xml version="1.0" encoding="UTF-8"?>
<svg id="Layer_1" data-name="Layer 1" xmlns="http://www.w3.org/2000/svg" xmlns:xlink="http://www.w3.org/1999/xlink" viewBox="0 0 529.5 443.96">
  <defs>
    <style>
      .cls-1 {
        fill: none;
      }

      .cls-2 {
        clip-path: url(#clippath);
      }

      .cls-3 {
        fill: #fff;
      }

      .cls-4 {
        fill: #796b3f;
      }

      .cls-5 {
        clip-path: url(#clippath-1);
      }
    </style>
    <clipPath id="clippath">
      <rect class="cls-1" width="264.75" height="443.96"/>
    </clipPath>
    <clipPath id="clippath-1">
      <rect class="cls-1" x="264.75" width="264.75" height="443.96"/>
    </clipPath>
  </defs>
  <g id="_Mirror_Repeat_" data-name=" Mirror Repeat ">
    <g class="cls-2">
      <g>
        <g>
          <path class="cls-4" d="m244.55,322.62c-8.77-1.71-34.93-7.17-54.55-28.22-6.49-6.96-14.42-17.95-22.57-47.03-6.53-23.3-9.03-44.62-11.29-86.53-2.62-48.56-1.6-92.72-.43-143.11.16-7.04.32-12.86.43-16.79H37.62v15.58c0,28.9-.06,51.11-.12,68.48-.15,42-.15,63,.12,73.96,1.39,56.14,2.08,84.21,11.29,116.63,6.8,23.95,18.39,63.02,52.67,97.82,24.06,24.42,49.03,36.32,63.96,43.27,33.46,15.58,61.31,19.24,88.41,22.57,34.75,4.27,52.12,6.41,62.08-1.88,27.11-22.58,12.91-97.77-20.69-112.87"/>
          <path d="m294.58,443.96c-10.04,0-23.17-1.61-40.67-3.76-25.57-3.14-54.47-6.69-88.76-22.66-13.82-6.43-39.55-18.41-64.23-43.46-35.15-35.68-46.7-76.37-52.9-98.22-9.24-32.52-9.93-60.68-11.32-116.78-.28-11.55-.26-34.93-.12-74.07.06-16.17.12-38.57.12-68.48V0h120.43l-.03.97c-.11,3.93-.27,9.75-.43,16.79-1.18,50.68-2.19,94.45.43,143.04,2.36,43.8,4.99,63.97,11.26,86.33,8,28.56,15.79,39.61,22.35,46.64,13.15,14.11,31.33,23.51,54.04,27.94l-.36,1.85c-23.1-4.5-41.63-14.09-55.06-28.5-6.72-7.2-14.67-18.47-22.79-47.42-6.31-22.51-8.95-42.77-11.32-86.73-2.63-48.66-1.61-92.47-.43-143.18.15-6.49.29-11.94.4-15.83H38.56v14.64c0,29.91-.06,52.31-.12,68.48-.14,39.13-.16,62.5.12,73.93,1.39,56.03,2.08,84.11,11.25,116.4,6.16,21.7,17.62,62.08,52.44,97.42,24.44,24.81,49.97,36.69,63.69,43.08,34.02,15.84,62.77,19.37,88.13,22.49,34.46,4.23,51.72,6.35,61.36-1.67,11.36-9.46,16.2-29.34,12.93-53.18-3.13-22.86-14.67-49.69-33.41-58.11l.77-1.71c19.39,8.71,31.3,36.2,34.5,59.57,3.35,24.48-1.73,45-13.59,54.88-5.12,4.26-12.05,5.86-22.05,5.86Z"/>
        </g>
        <g>
          <ellipse class="cls-3" cx="96.57" cy="67.53" rx="15.39" ry="15.7" transform="translate(12.13 149.74) rotate(-79.2)"/>
          <path class="cls-3" d="m96.72,83.54c-1.04,0-2.1-.1-3.15-.3-4.27-.82-7.98-3.21-10.44-6.75-2.46-3.54-3.38-7.81-2.57-12.01,1.65-8.66,10.17-14.34,19.01-12.65,8.83,1.68,14.67,10.1,13.02,18.76-.8,4.2-3.22,7.83-6.81,10.22-2.71,1.8-5.84,2.74-9.05,2.74Zm-.27-30.81c-7.07,0-13.37,4.91-14.71,11.97-.74,3.88.11,7.82,2.38,11.1,2.28,3.28,5.72,5.5,9.68,6.26,3.97.76,7.98-.05,11.3-2.26,3.32-2.21,5.56-5.56,6.3-9.44,1.53-8.01-3.88-15.8-12.06-17.36-.97-.19-1.94-.27-2.89-.27Z"/>
        </g>
        <g>
          <ellipse class="cls-3" cx="96.57" cy="152.19" rx="15.39" ry="15.7" transform="translate(-71.02 218.53) rotate(-79.2)"/>
          <path class="cls-3" d="m96.72,168.19c-1.04,0-2.1-.1-3.15-.3-4.27-.82-7.98-3.21-10.44-6.75-2.46-3.54-3.38-7.81-2.57-12.01,1.65-8.66,10.18-14.34,19.01-12.65,8.83,1.68,14.67,10.1,13.02,18.76-.8,4.2-3.22,7.83-6.81,10.22-2.71,1.8-5.84,2.74-9.05,2.74Zm-.27-30.81c-7.07,0-13.37,4.91-14.71,11.97-.74,3.88.11,7.82,2.38,11.1,2.28,3.28,5.72,5.5,9.68,6.26,3.96.76,7.98-.05,11.31-2.26,3.32-2.21,5.56-5.56,6.3-9.44,1.53-8.01-3.88-15.8-12.06-17.36-.97-.19-1.94-.27-2.89-.27Z"/>
        </g>
        <g>
          <ellipse class="cls-3" cx="102.2" cy="238.72" rx="15.39" ry="15.7" transform="translate(-151.44 294.38) rotate(-79.2)"/>
          <path class="cls-3" d="m102.32,254.72c-1.03,0-2.07-.1-3.12-.29-4.27-.82-7.98-3.21-10.44-6.76-2.46-3.54-3.38-7.81-2.57-12.01h0c1.65-8.66,10.18-14.34,19.01-12.65,8.83,1.68,14.67,10.1,13.02,18.76-1.46,7.63-8.25,12.95-15.89,12.95Zm-.24-30.81c-7.07,0-13.37,4.91-14.71,11.97h0c-.74,3.88.11,7.82,2.38,11.1,2.28,3.28,5.72,5.5,9.68,6.26,8.18,1.56,16.08-3.69,17.6-11.7s-3.88-15.8-12.06-17.36c-.97-.19-1.94-.28-2.89-.28Z"/>
        </g>
        <g>
          <ellipse class="cls-3" cx="128.54" cy="304.56" rx="15.39" ry="15.7" transform="translate(-194.71 373.76) rotate(-79.2)"/>
          <path class="cls-3" d="m128.66,320.57c-1.03,0-2.07-.1-3.12-.3-4.27-.82-7.98-3.21-10.44-6.75-2.46-3.54-3.38-7.81-2.57-12.01h0c.8-4.2,3.22-7.83,6.81-10.22,3.59-2.39,7.92-3.25,12.19-2.44,8.83,1.68,14.67,10.1,13.02,18.76-1.46,7.63-8.25,12.95-15.89,12.95Zm-.27-30.81c-2.98,0-5.88.87-8.39,2.54-3.32,2.21-5.56,5.56-6.3,9.44h0c-.74,3.88.11,7.82,2.38,11.1,2.28,3.28,5.72,5.5,9.68,6.26,8.18,1.56,16.08-3.69,17.6-11.7,1.53-8.01-3.88-15.8-12.06-17.36-.97-.19-1.95-.28-2.92-.28Z"/>
        </g>
        <g>
          <ellipse class="cls-3" cx="263.99" cy="387.33" rx="15.39" ry="15.7" transform="translate(-165.95 574.07) rotate(-79.2)"/>
          <path class="cls-3" d="m264.11,403.34c-1.03,0-2.07-.1-3.12-.29-8.83-1.68-14.67-10.1-13.02-18.76h0c.8-4.2,3.22-7.83,6.81-10.22,3.59-2.39,7.92-3.25,12.19-2.44,8.83,1.68,14.67,10.1,13.02,18.76-1.46,7.63-8.25,12.95-15.89,12.95Zm-.27-30.81c-2.98,0-5.88.87-8.39,2.54-3.32,2.21-5.56,5.56-6.3,9.44h0c-1.53,8.01,3.88,15.8,12.06,17.36,8.18,1.56,16.08-3.69,17.6-11.7,1.53-8.01-3.88-15.8-12.06-17.36-.97-.19-1.95-.28-2.92-.28Z"/>
        </g>
        <g>
          <ellipse class="cls-3" cx="183.1" cy="364.76" rx="15.39" ry="15.7" transform="translate(-209.51 476.27) rotate(-79.2)"/>
          <path class="cls-3" d="m183.25,380.77c-1.04,0-2.1-.1-3.15-.3-8.83-1.68-14.67-10.1-13.02-18.76h0c1.65-8.66,10.18-14.33,19.01-12.65,4.27.82,7.98,3.21,10.44,6.76,2.46,3.54,3.38,7.81,2.57,12.01-.8,4.2-3.22,7.83-6.81,10.22-2.71,1.8-5.84,2.74-9.05,2.74Zm-14.98-18.84h0c-1.53,8.01,3.88,15.8,12.06,17.36,3.96.76,7.98-.04,11.31-2.26,3.32-2.21,5.56-5.56,6.3-9.44.74-3.88-.11-7.82-2.38-11.1-2.28-3.28-5.72-5.5-9.68-6.26-8.18-1.56-16.08,3.69-17.6,11.7Z"/>
        </g>
      </g>
    </g>
  </g>
  <g id="_Mirror_Repeat_-2" data-name=" Mirror Repeat -2">
    <g class="cls-5">
      <g>
        <g>
          <path class="cls-4" d="m284.95,322.62c8.77-1.71,34.93-7.17,54.55-28.22,6.49-6.96,14.42-17.95,22.57-47.03,6.53-23.3,9.03-44.62,11.29-86.53,2.62-48.56,1.6-92.72.43-143.11-.16-7.04-.32-12.86-.43-16.79h118.51v15.58c0,28.9.06,51.11.12,68.48.15,42,.15,63-.12,73.96-1.39,56.14-2.08,84.21-11.29,116.63-6.8,23.95-18.39,63.02-52.67,97.82-24.06,24.42-49.03,36.32-63.96,43.27-33.46,15.58-61.31,19.24-88.41,22.57-34.75,4.27-52.12,6.41-62.08-1.88-27.11-22.58-12.91-97.77,20.69-112.87"/>
          <path d="m234.91,443.95c-10,0-16.93-1.6-22.05-5.86-11.86-9.88-16.94-30.4-13.59-54.88,3.2-23.37,15.11-50.86,34.5-59.57l.77,1.71c-18.73,8.42-30.28,35.25-33.41,58.11-3.26,23.84,1.57,43.72,12.93,53.18,9.64,8.03,26.9,5.9,61.29,1.68,25.43-3.13,54.18-6.66,88.2-22.5,13.71-6.38,39.24-18.27,63.69-43.08,34.81-35.34,46.28-75.72,52.44-97.42,9.17-32.29,9.87-60.37,11.25-116.31.28-11.52.26-34.89.12-74.02-.06-16.04-.12-38.33-.12-68.48V1.88h-116.6c.11,3.89.25,9.34.4,15.83,1.18,50.72,2.2,94.52-.43,143.18-2.37,43.96-5.02,64.23-11.32,86.73-8.11,28.95-16.07,40.22-22.79,47.42-13.43,14.41-31.95,24-55.06,28.5l-.36-1.85c22.71-4.43,40.89-13.83,54.04-27.94,6.56-7.04,14.35-18.08,22.35-46.64,6.26-22.35,8.89-42.52,11.26-86.33,2.62-48.59,1.61-92.36.43-143.04-.16-7.04-.32-12.86-.43-16.79l-.03-.97h120.42v16.52c0,30.15.06,52.43.12,68.48.14,39.15.16,62.53-.12,73.99-1.39,56.19-2.09,84.35-11.33,116.86-6.21,21.86-17.76,62.54-52.9,98.22-24.68,25.05-50.41,37.03-64.23,43.46-34.29,15.97-63.19,19.52-88.69,22.65-17.54,2.16-30.7,3.77-40.75,3.77Z"/>
        </g>
        <g>
          <ellipse class="cls-3" cx="432.94" cy="67.52" rx="15.7" ry="15.39" transform="translate(-4.98 82.32) rotate(-10.8)"/>
          <path class="cls-3" d="m432.82,83.52c-7.64,0-14.43-5.31-15.89-12.95-.8-4.2.11-8.46,2.57-12.01,2.46-3.54,6.17-5.94,10.44-6.76h0c8.82-1.69,17.35,3.99,19.01,12.65,1.65,8.66-4.19,17.08-13.02,18.76-1.05.2-2.09.3-3.12.3Zm-2.65-30.53c-3.96.76-7.4,2.98-9.68,6.26-2.28,3.28-3.12,7.22-2.38,11.1,1.53,8.01,9.42,13.26,17.6,11.7,8.18-1.56,13.59-9.35,12.06-17.36-1.53-8.01-9.42-13.26-17.6-11.7h0Z"/>
        </g>
        <g>
          <ellipse class="cls-3" cx="432.95" cy="152.16" rx="15.7" ry="15.39" transform="translate(-20.84 83.82) rotate(-10.8)"/>
          <path class="cls-3" d="m432.83,168.16c-7.64,0-14.43-5.31-15.89-12.95-1.65-8.66,4.19-17.08,13.02-18.76h0c8.82-1.69,17.35,3.99,19.01,12.65,1.65,8.66-4.19,17.08-13.02,18.76-1.05.2-2.09.3-3.12.3Zm-2.65-30.53c-8.18,1.56-13.59,9.35-12.06,17.36s9.42,13.26,17.6,11.7c8.18-1.56,13.59-9.35,12.06-17.36-1.53-8.01-9.42-13.26-17.6-11.7h0Z"/>
        </g>
        <g>
          <ellipse class="cls-3" cx="427.29" cy="238.7" rx="15.7" ry="15.39" transform="translate(-37.16 84.29) rotate(-10.8)"/>
          <path class="cls-3" d="m427.14,254.7c-3.21,0-6.34-.94-9.05-2.74-3.59-2.39-6.01-6.02-6.81-10.21-1.65-8.66,4.19-17.08,13.02-18.76h0c4.28-.81,8.61.05,12.19,2.44,3.59,2.39,6.01,6.02,6.81,10.22.8,4.2-.11,8.46-2.57,12.01-2.46,3.54-6.17,5.94-10.44,6.75-1.05.2-2.1.3-3.15.3Zm-2.62-30.53h0c-8.18,1.56-13.59,9.35-12.06,17.36.74,3.88,2.98,7.23,6.3,9.44,3.33,2.21,7.34,3.02,11.3,2.26,3.96-.76,7.4-2.98,9.68-6.26,2.28-3.28,3.12-7.22,2.38-11.1-.74-3.88-2.98-7.23-6.3-9.44-3.33-2.21-7.34-3.02-11.3-2.26Z"/>
        </g>
        <g>
          <ellipse class="cls-3" cx="400.96" cy="304.53" rx="15.7" ry="15.39" transform="translate(-49.96 80.53) rotate(-10.8)"/>
          <path class="cls-3" d="m400.82,320.54c-3.21,0-6.34-.93-9.05-2.74-3.59-2.39-6.01-6.02-6.81-10.22-.8-4.2.11-8.46,2.57-12.01,2.46-3.54,6.17-5.94,10.44-6.75h0c8.83-1.68,17.36,3.99,19.01,12.65,1.65,8.66-4.19,17.08-13.02,18.76-1.05.2-2.1.3-3.15.3Zm.27-30.81c-.95,0-1.92.09-2.89.28h0c-3.96.76-7.4,2.98-9.68,6.26-2.28,3.28-3.12,7.22-2.38,11.1.74,3.88,2.98,7.23,6.3,9.44,3.33,2.21,7.34,3.02,11.3,2.26,8.18-1.56,13.59-9.35,12.06-17.36-1.35-7.06-7.64-11.97-14.71-11.97Z"/>
        </g>
        <g>
          <ellipse class="cls-3" cx="265.52" cy="387.31" rx="15.7" ry="15.39" transform="translate(-67.87 56.61) rotate(-10.8)"/>
          <path class="cls-3" d="m265.37,403.31c-3.21,0-6.34-.94-9.05-2.74-3.59-2.39-6.01-6.02-6.81-10.21-1.65-8.66,4.19-17.08,13.02-18.76h0c4.28-.81,8.61.05,12.19,2.44,3.59,2.39,6.01,6.02,6.81,10.22.8,4.2-.11,8.46-2.57,12.01-2.46,3.54-6.17,5.94-10.44,6.75-1.05.2-2.1.3-3.15.3Zm-2.62-30.53h0c-8.18,1.56-13.59,9.35-12.06,17.36.74,3.88,2.98,7.23,6.3,9.44,3.33,2.21,7.34,3.02,11.3,2.26,3.96-.76,7.4-2.98,9.68-6.26,2.28-3.28,3.12-7.22,2.38-11.1-.74-3.88-2.98-7.23-6.3-9.44-3.33-2.21-7.34-3.02-11.3-2.26Z"/>
        </g>
        <g>
          <ellipse class="cls-3" cx="346.41" cy="364.74" rx="15.7" ry="15.39" transform="translate(-62.21 71.37) rotate(-10.8)"/>
          <path class="cls-3" d="m346.26,380.75c-3.21,0-6.34-.93-9.05-2.74-3.59-2.39-6.01-6.02-6.81-10.22-1.65-8.66,4.19-17.08,13.02-18.76h0c8.82-1.68,17.36,3.99,19.01,12.65,1.65,8.66-4.19,17.08-13.02,18.76-1.05.2-2.1.3-3.15.3Zm.27-30.81c-.95,0-1.92.09-2.89.28h0c-8.18,1.56-13.59,9.35-12.06,17.36.74,3.88,2.98,7.23,6.3,9.44,3.33,2.21,7.34,3.02,11.31,2.26,8.18-1.56,13.59-9.35,12.06-17.36-1.35-7.06-7.64-11.97-14.71-11.97Z"/>
        </g>
      </g>
    </g>
  </g>
</svg>