<?xml version="1.0" encoding="UTF-8"?>
<svg id="Layer_1" data-name="Layer 1" xmlns="http://www.w3.org/2000/svg" viewBox="0 0 1188.89 492.89">
  <g id="Layer_2" data-name="Layer 2">
    <path id="Hale" d="m1055.18,146.29c-3.33,8.72-15.75,14-16.58,14.39-3.02,1.24-4.33,1.28-7.2,3.03-5.71,3.43-10.87,9.58-9.6,11.76,1.15,1.94,7.04-.28,19.46-3.23,19.59-4.7,36.74-6.73,36.56-8.72-.12-1.01-4.72-.49-6.49-3.63-1.5-2.56-.09-5.99.1-6.49,2.61-6.2,12.18-6.53,21.86-9.37,19.89-6,33.37-21.18,31.95-23.87-.81-1.48-5.95.63-7.23-1.55-1.21-2.14,2.14-6.9,5.97-9.74,4.32-3.26,6.77-2.41,11.62-4.6,9.41-4.2,14.86-14.24,13.67-15.51-.55-.56-2.4.9-7.2,3.03,0,0-7.94,3.56-18.11,5.44-7.6,1.43-9.94.38-18.56.72-4.25.21-15.7.68-27.01,5.03-6.37,2.46-23.98,9.31-26.42,21.97-1.74,9.27,6.42,12.98,3.21,21.34Z" style="fill: #7c6c61;"/>
    <path id="Hov_venstre_bagben" data-name="Hov venstre bagben" d="m996.68,368.02c-2.17-2.59,2.77-7.4,6.65-19.26.98-2.98,1.21-4.32,2.48-4.9,2.54-1.16,4.86,2.55,13.01,6.59,4.44,2.22,5.98,2.23,7.3,4.34,1.59,2.7,1.08,6.37-.45,8.96-1.28,2.13-3.04,3.12-5.04,4.24-3.76,2.11-7.28,2.55-9.01,2.71-4.77.52-8.29-.42-12.24-1.51-1.52-.51-2.35-.72-2.7-1.17Z" style="fill: #806d63;"/>
    <path id="Hov_højre_bagben" data-name="Hov højre bagben" d="m904.42,347.98c-2.17-2.59,2.77-7.4,6.65-19.26.98-2.98,1.21-4.32,2.48-4.9,2.54-1.16,4.86,2.55,13.01,6.59,4.44,2.22,5.98,2.23,7.3,4.34,1.59,2.7,1.08,6.37-.45,8.96-1.28,2.13-3.04,3.12-5.04,4.24-3.76,2.11-7.28,2.55-9.01,2.71-4.77.52-8.29-.42-12.24-1.51-1.52-.51-2.35-.72-2.7-1.17Z" style="fill: #806d63;"/>
    <path id="Hov_venstre_forben" data-name="Hov venstre forben" d="m709.29,257.8c.32-3.35,7.21-3.2,18.47-8.69,2.76-1.38,3.97-2.17,5.22-1.64,2.61,1.03,1.6,5.29,4.43,13.93,1.5,4.71,2.65,5.87,2.04,8.2-.81,2.99-3.81,5.27-6.7,5.98-2.38.56-4.3,0-6.53-.64-4.21-1.24-6.94-3.45-8.23-4.52-3.73-3.03-5.46-6.24-7.51-9.8-.77-1.55-1.2-2.31-1.18-2.81Z" style="fill: #806d63;"/>
    <path id="Hov_højre_forben" data-name="Hov højre forben" d="m691.54,212.91c.16-3.36,7.06-3.54,17.97-9.66,2.73-1.49,3.81-2.34,5.2-1.91,2.62.86,1.84,5.16,5.08,13.69,1.8,4.62,2.93,5.69,2.45,8.08-.68,3.06-3.55,5.42-6.38,6.33-2.39.73-4.35.23-6.54-.31-4.26-1.01-7.05-3.09-8.45-4.13-3.84-2.84-5.77-5.99-7.97-9.45-.94-1.39-1.38-2.15-1.36-2.65Z" style="fill: #806d63;"/>
    <path id="Højre_forben" data-name="Højre forben" d="m826.49,174.37c-4.84,2.8-8.29,2.51-17.83,3.1-17.61,1.16-17.05,2.94-34.78,3.69-8.83.4-8.78,0-12.41.63-8.34,1.53-11.4,4.38-22.87,9.33-4.08,1.76-10.22,4.27-18.44,6.81-10.1,3.13-16.81,4.19-16.96,6.78-.04.84.62,1.21,5.64,6.08,2.83,2.79,4.28,4.2,4.79,4.83,4.03,5.27,2.96,9.32,5.45,10.11,1.69.52,3.51-.88,6.99-3.41,2.93-2.15,2.72-2.87,4.69-3.92,3.9-2.04,5.81-.54,9.17-1.93,4.25-1.75,3.84-5.17,8.09-9.07,4.04-3.68,8.72-4.5,12.41-5.1,3.15-.56,6.01-.59,20.53,1.93,7.37,1.29,8.74,1.62,13.27,2.43,11.41,1.91,17.15,2.88,22.1,2.81,9.49-.2,27.11-4.29,30.84-16.49,3.4-10.84-5.25-25.07-11.51-25.12-2.99-.04-3.79,3.39-9.15,6.5Z" style="fill: #b2a398;"/>
    <path id="Højre_bagben" data-name="Højre bagben" d="m942.33,224.57c.92-6.72,1.85-13.77,6.74-18.35,6.33-5.93,17.23-6.02,24.89-2.17,9.73,4.93,12.52,15.62,13.68,19.71,2.98,11.14-2.29,13.01,1.15,25.78,0,0,1.81,6.61,2.44,15.48.26,3.85.21,6.23-1.34,7.77-1.94,1.93-4.54.73-9.06.96-6.94.25-13.34,3.38-17.04,7.08-1.76,1.77-1.38,2.16-5.62,10.97-6.45,13.52-6.98,12.02-9.3,18.47-2.48,7.05-2.09,9.42-5.06,11.8-3,2.28-6.28,1.99-7.87,5.15-.81,1.61-.9,4.06-1.06,5.43-.2,2.82.19,3.04-.17,3.69-1.35,2.26-6.64.33-17.77-.56-5.03-.4-6.58-.24-7.5-1.53-1.77-2.54,1.53-7.5,4.61-12.23,7.67-11.55,11.57-17.29,16.24-23.63,9.91-13.39,14.82-20.03,16-25.82,1.22-6.03,1.75-17.44-1.5-27.01-.59-1.71-2.12-5.75-2.59-11.52-.23-1.59-.44-5.07.14-9.48Z" style="fill: #b2a398;"/>
    <path id="Body" d="m819.81,55.88c3.29-1.26,7.97.84,17.28,5.11,7.18,3.33,14.29,6.62,21.61,12.61,2.17,1.82,7.41,6.3,20.78,26.7,13.93,21.4,14.93,26.69,23.99,33.57,6.3,4.73,11.83,6.71,19.8,9.53,4.66,1.66,13.88,4.58,44.08,7.54,21.73,2.09,22.75,1.2,31.32,3.41,8.87,2.3,19.6,5.29,29.84,14.21,8.7,7.54,12.78,15.76,18.05,26.2,4.34,8.71,6.55,13.05,6.8,19.39.36,10.27-4.51,18.83-7.63,24.4-6.31,11.28-12.44,14.99-10.71,19.14,1.12,2.61,4.6,3.78,11.69,6.03,5.47,1.77,8.39,1.77,12.54,4.52,2.71,1.77,4.27,2.82,4.92,4.74.77,2.32-.05,5.31-10.26,17.41-6.37,7.54-7.15,7.7-10.43,12.33-.9,1.3-4.39,6.15-7.91,13.22-3.19,6.31-4.78,9.46-5.57,13.5-.84,4.27-.02,5.41-.65,18.23-.16,3.36-.38,6.07-2.42,7.86-2.11,1.92-5.23,1.81-6.84,1.77-4.4-.14-5.21-2.23-9.99-2.92-4.94-.7-6.72,1.23-7.97-.07-1.96-2.04.85-8.13,4.89-16.89.59-1.22,1.72-3.69,2.98-7.02.62-1.72.82-2.38,1.66-4.66,1.31-3.57,2.3-6.11,2.65-7.04,2.9-7.33,4.1-15.78,7.85-24.79,5.6-13.39,9.1-15.48,7.57-18.92-2.77-6.28-14.76-.08-28.54-7.45-9.81-5.23-23.97-19.01-25.5-34.42-.3-3.01-.35-7.68-3.62-10.29-3.76-2.97-9.62-1.42-12.96-.54-16.69,4.6-30.39,10.62-31.97,11.29-20.18,8.68-41.49,2-45.24.85-27.48-8.58-40.83-33.95-47.22-46.06-3.71-7.07-7.77-15.03-8.22-25.77-.25-6.17,1.69-9.64,1.54-20.75-.09-10.3-1.53-14.03-2.05-15.26-1.72-4.15-3.29-5.2-3.12-8.12.27-5.7,6.89-7.08,6.99-11.41.17-5.07-8.86-6.16-14.33-13.01-15.64-19.43-24.38-26.73,4.3-38.14Z" style="fill: #c1b0a4;"/>
    <path id="Hoved" d="m828.35,73.83c-1.1-9.57,1.5-14.22-1.52-16.35s-8.48.85-17.78,5.63c-5.82,3.02-9.72,5.06-14.18,9.19-1.76,1.6-8.97,8.49-13.05,18.86,0,0-.07.13-3.63,10.02,0,0-1.92,5.9-4.07,10.81-1.05,2.34-3.16,7.18-7.08,12.65-3.77,5.21-4.59,4.66-5.69,7.4-2.49,6.61,1.02,13.57,2.22,15.88,1.38,2.76,3.17,6.34,7.23,8.61,1.11.62,6.36,3.56,12.12,1.27,4.62-1.8,8.2-6.34,8.26-10.44-.02-1.65-.52-2.45-.35-4.76h0c.15-2.58,1.77-5.47,2.14-6.12,1.79-3.04,9.03-.29,18.21-2.55,2.89-.71,7.64-2.27,12.25-5.89.77-.6,3.85-3.18,6.85-7.79,1.16-1.76,6.75-10.68,5.95-22.32-.59-11.09-6.3-11.36-7.86-24.11Z" style="fill: #ad9b8f;"/>
    <path id="Hoved-2" data-name="Hoved" d="m835.07,61.84c-3.77-4.35-9.72-5.09-11.19-5.23-5.48-.66-9.69,1.47-17.78,5.63-5.82,3.02-9.72,5.06-14.18,9.19-1.76,1.6-8.97,8.49-13.05,18.86,0,0-.07.13-3.63,10.02,0,0-1.92,5.9-4.07,10.81-1.05,2.34-3.16,7.18-7.08,12.65-3.77,5.21-4.59,4.66-5.69,7.4-2.49,6.61,1.02,13.57,2.22,15.88,1.6,3.14,3.36,6.61,7.23,8.61,6.18,3.11,15.08,1.21,19.28-3.84,3.74-4.53,1.96-9.49,6.69-12.87,1.6-1.17,2.51-1.09,6.15-2.07,3.64-.97,13.18-3.56,20.5-9.71.94-.76,4.1-3.47,6.85-7.79,4.38-6.76,4.83-12.79,5.95-22.32,3.22-25.75,6.02-30.29,1.81-35.23Z" style="fill: #c1b0a4;"/>
    <path id="Venstre_forben" data-name="Venstre forben" d="m723.51,257.32c-1.61-2.19-2.6-4.12-1.98-5.24.37-.66,1.04-.62,3.03-1.41.45-.18,1.51-.7,3.68-1.81,2.89-1.48,16.11-8.63,21.47-11.91,13.5-8.28,17.02-16.56,33.04-26.88,16.75-10.86,22.31-8.95,56.08-22.68.89-.36,3.22-1.3,6.32-1.45,12.64-.59,21.69,12.31,22.57,13.66,2.2,3.3,5.03,7.47,4.16,12.4-.85,4.43-4.24,7.27-5.74,8.41-7.58,6-16.46,4.65-45.24,4.38-11.4-.09-17.66.02-25.33,2.96-1.3.48-6.85,2.71-13.12,7.29-4.67,3.41-8,7.06-14.63,14.45-6.99,7.71-10.46,11.62-11.01,12.44-1.56,2.48-2.64,4.72-5.14,5.65-3.15,1.16-5.18-.75-8.51.75-1.07.52-2.03,1.62-4.08,3.74-2.09,2.19-2.6,3.11-3.3,2.97-1.27-.19-.97-3.04-2.43-6.27-1.97-4.63-4.93-4.57-9.86-11.46Z" style="fill: #c1b0a4;"/>
    <path id="Man" d="m795.29,75.39c-3.85.43-12.58,1.4-18.91-4.04-5.3-4.52-6.91-11.96-5.69-12.74.83-.57,2.58,2.31,6.97,3.39,4.09,1,8.65-.07,8.95-1.53.34-1.53-4.04-2-5.43-5.53-1.32-3.32.91-7.15,3.28-11.25,2.34-4.03,6.82-10.04,8.7-9.25,1.52.68-.77,5.08,1.52,9.89,1.68,3.61,4.93,5.34,7.39,6.63,3.9,2.1,8.16,2.33,16.62,2.76,5.2.24,7.06,0,7.72-1.19,1.1-1.97-1.84-5.33-1.35-5.75.63-.51,3.77,4.95,9.13,6.14,4,.86,8.91-.69,10.01-3.43.96-2.48-1.37-5.24-.95-5.53.8-.5,5.13,9.76,12.11,10.82,5.48.83,10.23-4.43,11.35-3.2.96,1.05-3.02,4.16-2.56,8.12.4,3.58,4.17,5.78,11.15,9.77,6.39,3.66,9.6,5.46,13.31,5.9,8.8,1.05,14.62-4.13,16.6-1.82,1.37,1.71-.56,5.46-1.33,6.83-3.14,6.08-8.1,6.48-8.09,9.07.03,3.63,10.04,8.37,20.32,7.84,9.14-.48,15.29-4.87,16.11-3.55,1.35,2.05-14.07,12.53-12.16,16.35.62,1.21,3.67,1.28,9.79,1.43,9.27.2,11.74-.83,12.75.59,1.96,2.65-3.31,11.15-9.82,16.63-1.79,1.5-16.9,14.04-29.75,9.01-12.29-4.81-7.38-19.88-25.62-36.98-2.55-2.37-7.61-6.24-17.81-14.01-9.13-6.92-13.77-10.46-16.96-11.99-4.04-2-16.28-7.99-29.86-5.09-8.34,1.53-8.6,4.74-17.49,5.71Z" style="fill: #7c6c61;"/>
    <path id="_Øre" data-name="Øre" d="m806.14,41.69c2.19.71,6.08,2.37,9.13,6.14,2.04,2.52,2.8,4.84,4.27,9.45,2.15,6.62,3.14,9.93,1.76,12.09-2.5,3.85-11.52,4.74-15.54.86-4.38-4.17-.26-11.08-4.85-22.86-1.23-3.19-2.6-5.5-3.64-7.03" style="fill: #c1b0a4;"/>
    <path id="_Øre-2" data-name="Øre" d="m805.38,48.58c.89,1.02,2.62,3.01,3.59,6.05.44,1.37.22,1.15.91,5.76.82,5.45,1.61,6.5,2.33,7.07,1.36,1.11,2.68.9,2.72,1.44.06.98-3.69,2.75-6.53,1.51-.99-.38-1.63-1.08-1.95-1.44-2.78-3.19-1.18-7.12-2.28-13.93-.83-5.29-2.69-10.11-2.78-10.25h0c.04-.07,2.34,1.82,3.99,3.78Z" style="fill: #a59083;"/>
    <path id="_Øje" data-name="Øje" d="m789.46,103.64c-1.36-1.88-.53-5.2,1.33-6.83,1.33-1.15,2.14-.44,5.31-2.11,1.45-.74,1.87-1.19,2.37-1,1.19.49,1.51,3.6.56,6.08-1.3,3.4-5.29,6.08-7.94,5.11-.13-.07-1.06-.42-1.62-1.25Z" style="fill: #383635;"/>
    <path d="m801.31,93.39c-.02-.27-1.48.03-5.14-.04-2.76,0-3.42-.19-4.72.28-.75.27-2.32.77-3.17,2.27-.26.46-.52,1.09-.21,5.3.22,3.14.27,3.68.43,3.69s.37-.66,1.02-3.05c1.03-3.38,1.15-3.75,1.44-4.1.68-.91,1.43-1.01,3.99-1.9,3.21-.96,6.49-2.05,6.37-2.46Z" style="fill: #ad9c93;"/>
    <path d="m765.01,139.02c-.08-2.63-1.7-3.88-1.18-4.36.56-.55,3.38.43,4.49,2.6,1.2,2.31.21,5.63-1.08,5.94-.72.2-1.65-.58-2.09-1.34-.53-.9-.16-1.55-.14-2.83Z" style="fill: #ad9c93;"/>
  </g>
  <g id="Layer_2-2" data-name="Layer 2">
    <path id="Hale-2" data-name="Hale" d="m87.49,125.98c.91-13.22-14.77-24.65-20.45-28.76-10.08-7.29-21.33-10.77-25.49-12.1-8.48-2.6-11.07-2.17-18.25-5.59-9.61-4.54-16.55-10.17-16.55-10.17-4.21-3.38-5.67-5.32-6.36-4.9-1.51.95,1.26,12.34,9.5,18.99,4.23,3.45,6.89,3.25,10.32,7.63,3.06,3.84,5.13,9.44,3.37,11.24-1.84,1.83-6.39-1.62-7.58-.36-2.12,2.3,7.28,20.91,25.45,32.1,8.87,5.37,18.28,8.21,19.24,15.05.06.54.55,4.32-1.61,6.47-2.58,2.66-7.01.92-7.4,1.9-.7,1.93,15.79,8.45,34.01,18.27,11.55,6.2,16.81,9.94,18.47,8.32,1.84-1.83-1.67-9.29-6.44-14.2-2.39-2.49-3.69-2.88-6.36-4.9-.72-.61-11.66-9.11-12.68-18.65-.99-9.15,8.09-10.68,8.8-20.34Z" style="fill: #7c6c61;"/>
    <path id="Hov_venstre_bagben-2" data-name="Hov venstre bagben" d="m75.49,382.32c-4.21.05-7.95.05-12.55-1.72-1.67-.61-5.05-1.97-8.23-5.06-1.69-1.64-3.18-3.09-3.89-5.53-.84-2.97-.38-6.75,1.91-9.01,1.86-1.75,3.4-1.35,8.39-2.39,9.16-1.87,12.43-4.95,14.65-3.13,1.11.91.99,2.3,1.18,5.51.74,12.8,4.37,18.87,1.54,20.88-.47.36-1.35.35-2.99.45Z" style="fill: #806d63;"/>
    <path id="Hov_højre_bagben-2" data-name="Hov højre bagben" d="m172.36,386.68c-4.21.05-7.95.05-12.55-1.72-1.67-.61-5.05-1.97-8.23-5.06-1.69-1.64-3.18-3.09-3.89-5.53-.84-2.97-.38-6.75,1.91-9.01,1.86-1.75,3.4-1.35,8.39-2.39,9.16-1.87,12.43-4.95,14.65-3.13,1.11.91.99,2.3,1.18,5.51.74,12.8,4.37,18.87,1.54,20.88-.47.36-1.35.35-2.99.45Z" style="fill: #806d63;"/>
    <path id="Hov_venstre_forben-2" data-name="Hov venstre forben" d="m390.91,350.47c-2.98,2.99-5.54,5.72-10.04,7.76-1.57.72-4.85,2.2-9.36,2.32-2.38.05-4.43.1-6.65-1.08-2.69-1.46-5.06-4.52-5.08-7.7,0-2.47,1.46-3.32,4.18-7.61,5.08-7.84,5.2-12.33,8.06-12.67,1.38-.2,2.38.9,4.75,3,9.73,8.42,16.61,10.07,16.05,13.48-.11.51-.74,1.15-1.91,2.48Z" style="fill: #806d63;"/>
    <path id="Hov_højre_forben-2" data-name="Hov højre forben" d="m420.2,310.37c-3.09,2.86-5.84,5.48-10.4,7.29-1.66.67-4.98,2-9.48,1.88-2.32-.04-4.4-.07-6.58-1.42-2.57-1.65-4.8-4.74-4.67-7.96.15-2.51,1.55-3.27,4.56-7.38,5.45-7.61,5.82-12.09,8.64-12.26,1.5-.07,2.35,1.07,4.66,3.26,9.23,8.94,16.03,10.94,15.31,14.31-.11.51-.74,1.15-2.04,2.28Z" style="fill: #806d63;"/>
    <path id="Højre_forben-2" data-name="Højre forben" d="m291.02,225.48c-6.22-1.59-18.56,10.26-18.03,21.92.5,13.1,16.91,21.79,26.28,24.48,4.89,1.37,10.85,1.91,22.68,3.02,4.72.38,6.16.41,13.82,1.07,15.07,1.31,17.9,2.09,20.89,3.48,3.51,1.57,7.94,3.62,10.98,8.33,3.19,5,1.89,8.28,5.65,11.14,2.97,2.26,5.27,1.28,8.6,4.32,1.68,1.56,1.29,2.22,3.63,5.12,2.79,3.43,4.23,5.29,6.04,5.22,2.68-.13,2.69-4.43,8.07-8.6.67-.49,2.48-1.51,6.02-3.54,6.27-3.52,7.01-3.71,7.19-4.56.53-2.6-5.85-5.43-15.06-11.19-7.5-4.69-12.93-8.79-16.52-11.61-10.08-7.93-12.37-11.56-20.25-15.27-3.43-1.59-3.49-1.18-12.15-3.89-17.4-5.41-16.38-7.03-33.56-12.81-9.32-3.1-12.82-3.72-16.89-7.77-4.5-4.5-4.39-8.11-7.37-8.86Z" style="fill: #b2a398;"/>
    <path id="Højre_bagben-2" data-name="Højre bagben" d="m167.81,263.17c-1.99,5.61-4.56,9.22-5.6,10.76-5.75,8.65-8.22,20.11-8.59,26.42-.35,6.07,2.78,13.94,9.1,29.85,2.97,7.52,5.33,14.25,9.91,27.73,1.81,5.51,3.78,11.3,1.36,13.35-1.25,1.04-2.75.47-7.84-.46-11.28-2.04-17.04-1.52-17.79-4.12-.19-.75.26-.86.8-3.71.2-1.4.76-3.86.38-5.67-.75-3.55-4.09-4.13-6.47-7.18-2.32-3.15-1.31-5.4-1.92-13.05-.61-7.01-1.53-5.66-4.38-20.78-1.9-9.87-1.41-10.15-2.7-12.37-2.71-4.64-8.24-9.44-15.06-11.51-4.43-1.41-7.32-.91-8.74-3.33-1.14-1.94-.55-4.32.72-8.07,2.96-8.65,6.49-14.73,6.49-14.73,6.77-11.78,2.04-15.02,7.92-25.3,2.22-3.76,7.81-13.64,18.76-15.97,8.62-1.81,19.41,1.15,24.14,8.7,3.65,5.83,2.72,13.08,1.87,19.99-.59,4.53-1.71,7.93-2.35,9.45Z" style="fill: #b2a398;"/>
    <path id="Body-2" data-name="Body" d="m330.42,157.44c-7.23,5.36-16.48,4.07-17.65,9.15-1.04,4.33,5.18,7.43,3.94,13.17-.6,2.94-2.43,3.57-5.23,7.24-.84,1.09-3.25,4.42-6.05,14.62-3.07,10.99-2.06,14.95-3.93,21-3.26,10.56-9.4,17.39-14.93,23.43-9.53,10.34-29.46,32.02-59,33.32-4.02.16-26.94,1.18-44.7-12.74-1.39-1.08-13.41-10.66-28.78-19.62-3.08-1.76-8.49-4.83-13.01-2.87-3.94,1.73-5.22,6.36-6.3,9.27-5.58,14.9-23.25,24.85-34.37,27.47-15.62,3.69-25.9-5.62-30.3-.11-2.41,3.01.51,6,2.55,20.78,1.35,9.93.32,18.64,1.27,26.68.1,1.01.42,3.8.78,7.69.24,2.49.26,3.2.43,5.07.38,3.65.85,6.4,1.12,7.76,1.71,9.76,2.89,16.54.41,18.06-1.58.96-2.84-1.42-7.93-2.03-4.93-.57-6.28,1.29-10.68.27-1.61-.38-4.74-1.09-6.33-3.55-1.55-2.31-1.06-5.06-.33-8.44,2.74-12.89,3.86-13.82,4.15-18.27.27-4.21-.48-7.76-1.99-14.87-1.64-7.94-3.83-13.67-4.38-15.21-2.04-5.45-2.77-5.82-7.11-14.98-6.96-14.7-6.98-17.88-5.61-19.99,1.15-1.73,2.98-2.36,6.14-3.41,4.84-1.64,7.74-.87,13.64-1.19,7.63-.37,11.39-.62,13.19-2.91,2.8-3.67-2.3-8.97-5.6-21.82-1.63-6.35-4.22-16.12-1.16-26.23,1.91-6.23,5.25-9.95,11.85-17.46,7.97-8.98,14.2-16.07,24.81-21.27,12.52-6.16,23.95-6.31,33.37-6.26,9.1.05,9.87,1.21,32,4.85,30.76,5.01,40.68,4.53,45.75,4.11,8.66-.71,14.66-1.22,22.17-4.26,10.81-4.45,13.19-9.44,32.65-27.03,18.65-16.74,25.03-19.81,27.66-21.04,8.85-4.02,16.77-5.42,24.77-6.84,10.38-1.79,15.57-2.64,18.51-.53,25.48,18.87,14.88,23.82-5.76,39Z" style="fill: #c1b0a4;"/>
    <path id="Hoved-3" data-name="Hoved" d="m308.84,155.89c-3.86,11.35-.65,21.68.04,23.73,1.77,5.36,4.15,8.73,4.76,9.53,3.62,4.81,7.93,7.6,10.61,9.06,8.53,4.66,16.44,3.83,17.41,7.32.19.75,1.04,4.04.51,6.64h0c-.43,2.34-1.14,3-1.6,4.63-1.02,4.09,1.33,9.54,5.45,12.54,5.11,3.79,11.09,2.25,12.36,1.92,4.63-1.19,7.35-4.28,9.45-6.65,1.8-1.98,7.12-7.96,6.38-15.18-.37-3.01-1.33-2.69-3.71-8.85-2.46-6.46-3.28-11.83-3.7-14.42-.84-5.44-1.2-11.8-1.2-11.8-.93-10.76-.97-10.9-.97-10.9-1.33-11.37-6.68-20.11-8-22.16-3.35-5.27-6.68-8.32-11.67-12.86-7.98-7.19-12.61-11.58-16.18-10.26s-2.2,6.62-5.81,15.83c-4.9,12.25-10.63,11.02-14.14,21.87Z" style="fill: #ad9b8f;"/>
    <path id="Hoved-4" data-name="Hoved" d="m312,155.8c-1.4,9.76-2.54,15.87.04,23.73,1.6,5.01,4.02,8.53,4.76,9.53,5.65,8.03,14.44,13.1,17.8,15.03,3.36,1.92,4.28,2.09,5.56,3.67,3.81,4.6.73,9.05,3.26,14.54,2.85,6.12,11.18,10.35,18.14,8.89,4.37-.96,7.03-3.96,9.45-6.65,1.8-1.98,7.12-7.96,6.38-15.18-.37-3.01-1.33-2.69-3.71-8.85-2.46-6.46-3.28-11.83-3.7-14.42-.84-5.44-1.2-11.8-1.2-11.8-.93-10.76-.97-10.9-.97-10.9-1.33-11.37-6.68-20.11-8-22.16-3.35-5.27-6.68-8.32-11.67-12.86-6.95-6.26-10.56-9.48-16.18-10.26-1.5-.25-7.61-1.07-12.49,2.25-5.48,3.8-3.89,9.05-7.47,35.46Z" style="fill: #c1b0a4;"/>
    <path id="Venstre_forben-2" data-name="Venstre forben" d="m366.03,352.56c-2.3,2.82-2.75,5.73-4.06,5.58-.73-.05-1-1.1-2.49-3.82-1.48-2.65-2.14-3.99-3.06-4.79-2.92-2.36-5.43-.99-8.25-2.98-2.24-1.58-2.72-4.08-3.62-6.96-.32-.95-2.75-5.75-7.66-15.24-4.64-9.08-6.99-13.58-10.73-18.2-5.02-6.2-9.94-9.87-11.11-10.69-6.84-4.93-13.03-6.69-24.37-9.59-28.64-7.3-37.82-8.29-43.77-16.25-1.19-1.53-3.81-5.23-3.49-9.86.44-5.13,4.34-8.52,7.4-11.22,1.23-1.11,13.61-11.54,26-7.63,3.04.97,5.11,2.51,5.9,3.11,29.92,22.51,35.94,22.08,49.72,37.26,13.19,14.46,14.51,23.6,25.73,35.37,4.47,4.67,15.71,15.25,18.19,17.48,1.86,1.67,2.79,2.47,3.18,2.77,1.77,1.3,2.44,1.44,2.63,2.19.33,1.27-1.16,2.93-3.34,4.68-6.7,5.55-9.63,4.7-12.8,8.78Z" style="fill: #c1b0a4;"/>
    <path id="Man-2" data-name="Man" d="m339.54,133.99c-12.73-6.45-26.45-3.72-30.99-2.8-3.57.68-9.11,2.98-20,7.45-12.17,5.04-18.22,7.55-21.37,9.23-22.6,12.18-21.7,28.44-35.16,29.98-14.08,1.62-25.79-14.81-27.17-16.76-5.02-7.15-8.02-16.98-5.38-19.09,1.38-1.15,3.56.52,12.82,2.76,6.11,1.46,9.17,2.19,10.09,1.15,2.9-3.29-9.66-17.75-7.78-19.43,1.15-1.09,6.11,4.88,15.06,7.76,10.07,3.23,21.25,1.16,22.24-2.44.69-2.57-4.13-4.28-5.65-11.14-.4-1.57-1.33-5.79.48-7.13,2.57-1.78,6.99,4.9,16,6.17,3.8.54,7.46-.4,14.77-2.36,7.98-2.13,12.29-3.32,13.64-6.77,1.49-3.81-1.64-7.94-.41-8.74,1.44-.93,4.77,5.55,10.43,6.17,7.21.78,14.21-8.27,14.87-7.56.34.39-2.7,2.53-2.4,5.24.37,3.01,4.85,5.85,9.04,6.04,5.63.23,10.19-4.37,10.68-3.7.38.54-3.42,3.11-2.85,5.35.35,1.35,2.13,2.08,7.36,3.21,8.51,1.8,12.8,2.69,17.23,1.63,2.78-.64,6.47-1.5,9.08-4.64,3.55-4.18,2.43-9.15,4.11-9.42,2.08-.29,4.95,6.86,6.21,11.47,1.28,4.69,2.49,9.08.3,12.03-2.3,3.14-6.78,2.46-6.84,4.07-.08,1.54,4.16,3.79,8.48,3.88,4.64.08,7.13-2.31,7.81-1.53,1,1.1-2.55,8.06-9.01,11.16-7.72,3.74-16.13.48-19.84-.96-8.57-3.3-7.98-6.56-15.86-10.27Z" style="fill: #7c6c61;"/>
    <path id="_Øre-3" data-name="Øre" d="m362.66,108.93c-1.43,1.24-3.4,3.18-5.46,6.02-7.66,10.49-5.38,18.43-10.83,21.42-5.02,2.8-13.74-.45-15.21-4.94-.8-2.5,1.05-5.53,4.92-11.54,2.67-4.19,4.04-6.3,6.72-8.26,4.02-2.95,8.32-3.57,10.68-3.7" style="fill: #c1b0a4;"/>
    <path id="_Øre-4" data-name="Øre" d="m357.38,112.28h0c-.13.11-3.25,4.42-5.46,9.45-2.88,6.48-2.33,10.79-5.92,13.23-.41.26-1.23.79-2.31.91-3.14.49-6.4-2.26-6.08-3.22.18-.53,1.44.03,3.08-.71.86-.38,1.92-1.21,4.17-6.41,1.9-4.39,1.62-4.24,2.42-5.48,1.76-2.76,4-4.29,5.15-5.07,2.16-1.51,4.94-2.78,4.96-2.71Z" style="fill: #a59083;"/>
    <path id="_Øje-2" data-name="Øje" d="m351.81,174.65c-2.88.26-6.14-3.44-6.54-7.16-.3-2.71.84-5.71,2.15-5.89.54-.06.85.5,2.09,1.61,2.71,2.49,3.7,2,4.72,3.49,1.42,2.11,1.36,5.62-.48,7.13-.78.68-1.79.78-1.94.82Z" style="fill: #383635;"/>
    <path d="m350.36,164.67c2.31,1.56,3.02,1.85,3.46,2.93.19.43.21.82.35,4.45.02,2.55.04,3.26.21,3.29s.35-.49,1.4-3.55c1.41-4.11,1.32-4.8,1.18-5.32-.44-1.72-1.87-2.63-2.55-3.09-1.17-.82-1.88-.79-4.61-1.52-3.66-.89-5.03-1.58-5.12-1.31-.22.38,2.75,2.32,5.68,4.12Z" style="fill: #ad9c93;"/>
    <path d="m367.85,218.17c-.63.64-1.77,1.17-2.43.78-1.2-.65-1.32-4.2.48-6.18,1.67-1.86,4.72-2.09,5.14-1.4.4.62-1.54,1.43-2.31,4.02-.31,1.27-.12,2.02-.88,2.78Z" style="fill: #ad9c93;"/>
  </g>
  <g id="Layer_2-3" data-name="Layer 2">
    <path id="Hale-3" data-name="Hale" d="m659.05,181.98c1.96,8.8-5.67,19.62-6.15,20.37-1.88,2.59-2.97,3.32-4.44,6.25-2.95,5.79-3.95,13.48-1.68,14.56,2.04.95,5.81-3.95,14.71-12.89,14.02-14.15,27.43-24.86,26.19-26.37-.66-.75-4.27,2.1-7.49.5-2.67-1.27-3.36-4.78-3.47-5.28-1.19-6.38,6.73-11.7,13.38-19.12,13.55-15.36,16.66-34.73,13.98-36.14-1.5-.77-4.69,3.65-6.97,2.57-2.2-1.09-1.97-6.69-.29-11.01,1.87-4.92,4.42-5.52,7.31-9.86,5.67-8.37,4.78-19.34,3.08-19.73-.77-.17-1.54,1.99-4.44,6.25,0,0-4.77,7.07-12.36,13.97-5.65,5.17-8.21,5.56-15.33,10.4-3.48,2.41-12.93,8.86-20.12,18.34-4.05,5.35-15.21,20.19-10.33,31.69,3.61,8.39,12.56,7.06,14.42,15.5Z" style="fill: #55453f;"/>
    <path id="Hov_venstre_bagben-3" data-name="Hov venstre bagben" d="m731.09,391.67c-3.26-.94-1.72-7.43-4.93-19.05-.8-2.92-1.34-4.12-.58-5.26,1.52-2.28,5.51-.52,14.64-1.57,4.98-.55,6.29-1.37,8.56-.36,2.83,1.33,4.41,4.57,4.53,7.46.09,2.39-.86,4.12-1.95,6.08-2.03,3.69-4.77,5.91-6.14,6.95-3.75,2.94-7.25,4.05-11.2,5.25-1.57.4-2.39.67-2.93.49Z" style="fill: #827c79;"/>
    <path id="Hov_højre_bagben-3" data-name="Hov højre bagben" d="m641.95,424.31c-3.26-.94-1.72-7.43-4.93-19.05-.8-2.92-1.34-4.12-.58-5.26,1.52-2.28,5.51-.52,14.64-1.57,4.98-.55,6.29-1.37,8.56-.36,2.83,1.33,4.41,4.57,4.53,7.46.09,2.39-.86,4.12-1.95,6.08-2.03,3.69-4.77,5.91-6.14,6.95-3.75,2.94-7.25,4.05-11.2,5.25-1.57.4-2.39.67-2.93.49Z" style="fill: #827c79;"/>
    <path id="Hov_venstre_forben-3" data-name="Hov venstre forben" d="m427.21,454.83c-1.56-2.87,4.36-6.39,10.88-16.77,1.57-2.57,2.17-3.85,3.52-4.08,2.77-.55,4.26,3.41,11.39,8.89,3.85,3.01,5.47,3.33,6.22,5.53.95,2.84-.34,6.26-2.4,8.36-1.71,1.71-3.65,2.28-5.88,2.94-4.25,1.23-7.77.89-9.45.71-4.82-.47-8.05-2.14-11.74-3.93-1.5-.84-2.29-1.22-2.54-1.64Z" style="fill: #827c79;"/>
    <path id="Hov_højre_forben-3" data-name="Hov højre forben" d="m387.56,428.03c-1.71-2.79,4.04-6.59,9.93-17.29,1.49-2.64,1.94-3.9,3.36-4.29,2.69-.69,4.39,3.19,11.81,8.35,4.06,2.77,5.6,3.03,6.51,5.22,1.1,2.83-.04,6.24-1.94,8.48-1.62,1.85-3.56,2.49-5.71,3.22-4.16,1.44-7.67,1.24-9.42,1.14-4.8-.26-8.17-1.77-11.93-3.41-1.56-.62-2.35-1-2.6-1.42Z" style="fill: #827c79;"/>
    <path id="Højre_forben-3" data-name="Højre forben" d="m480.73,325.58c-2.56,4.82-5.65,6.4-13.41,11.94-14.28,10.25-12.83,11.39-27.44,21.37-7.26,4.99-7.44,4.64-10.16,7.07-6.23,5.65-7.26,9.56-14.26,19.61-2.49,3.58-6.32,8.85-11.89,15.24-6.84,7.86-11.94,12.27-10.65,14.44.43.7,1.18.65,8.11,1.92,3.93.75,5.93,1.12,6.7,1.36,6.3,2.12,7.62,5.95,10.16,5.27,1.72-.48,2.49-2.56,4.05-6.44,1.3-3.28.74-3.75,1.82-5.64,2.18-3.7,4.63-3.51,6.71-6.4,2.64-3.66.42-6.2,1.88-11.59,1.4-5.1,4.92-8.24,7.71-10.68,2.36-2.12,4.77-3.66,18.45-9.3,6.95-2.86,8.29-3.32,12.58-5.06,10.72-4.5,16.11-6.75,20.26-9.42,7.93-5.18,20.61-17.79,17.08-29.6-3.07-10.54-18.2-17.43-23.52-14.16-2.56,1.55-1.35,4.74-4.18,10.08Z" style="fill: #6e5c55;"/>
    <path id="Højre_bagben-3" data-name="Højre bagben" d="m606.39,304.78c-2.91-5.9-5.98-12.08-4.35-18.36,2.11-8.13,11.29-13.97,19.89-14.91,10.94-1.17,19.17,5.97,22.39,8.65,8.63,7.4,5.2,11.7,15.11,20.17,0,0,5.16,4.37,10.56,11.19,2.33,2.96,3.6,4.91,3.13,6.97-.59,2.58-3.45,2.99-7.15,5.56-5.74,3.87-9.45,9.78-10.56,14.72-.52,2.36.01,2.47,1.25,11.82,1.95,14.31.67,13.38,2.25,19.81,1.76,6.99,3.4,8.7,2.19,12.19-1.29,3.43-4.23,4.93-3.85,8.32.19,1.73,1.47,3.75,2.08,4.94,1.38,2.37,1.83,2.34,1.88,3.07.09,2.53-5.44,3.78-15.35,8.95-4.48,2.33-5.71,3.29-7.19,2.73-2.89-1.11-2.82-6.85-2.8-12.29.16-13.37.32-20.05.8-27.63,1.05-16.04,1.57-23.98-.61-29.28-2.27-5.51-8.08-14.99-16.08-20.98-1.44-1.06-4.95-3.51-8.51-7.92-1.07-1.16-3.15-3.85-5.08-7.71Z" style="fill: #6e5c55;"/>
    <path id="Body-3" data-name="Body" d="m410.09,233.6c2.09-2.75,7.21-3.53,17.44-5.02,7.9-1.11,15.73-2.22,25.22-1.26,2.83.32,9.73,1.16,32.25,10.53,23.54,9.88,27.29,13.62,38.74,14.37,7.94.48,13.7-.85,22-2.79,4.86-1.13,14.27-3.65,41.47-17.24,19.55-9.81,19.92-11.07,28.4-13.82,8.78-2.84,19.5-6.1,33.07-4.33,11.5,1.47,19.47,5.95,29.66,11.57,8.45,4.73,12.71,7.05,16.39,12.03,5.94,8.09,6.5,17.56,6.92,23.7.84,12.43-2.31,18.66,1.42,21.1,2.38,1.51,5.97.61,13.21-1.33,5.6-1.47,8.08-3.01,13.1-2.99,3.27,0,5.17.01,6.77,1.21,1.92,1.47,2.87,4.31.86,19.47-1.26,9.45-1.83,9.99-2.07,15.45-.05,1.53-.35,7.28.54,14.84.76,6.77,1.14,10.16,2.68,13.83,1.63,3.88,2.95,4.37,9.45,15.04,1.71,2.79,3,5.1,2.26,7.61-.73,2.66-3.44,4.22-4.83,5.04-3.8,2.22-5.63.96-10.06,2.93-4.57,2.05-5.01,4.55-6.79,4.16-2.78-.61-3.74-7.01-5.12-16.2-.16-1.3-.57-3.88-1.32-7.24-.42-1.71-.61-2.35-1.15-4.64-.85-3.57-1.4-6.15-1.62-7.08-1.57-7.44-5.18-14.89-6.95-24.14-2.6-13.76-.79-17.29-3.96-19.26-5.79-3.6-12.55,7.74-28.26,9.09-11.18.97-30.73-2.65-40.48-14.26-1.9-2.27-4.51-6.01-8.71-6.38-4.81-.4-8.93,3.94-11.27,6.42-11.62,12.54-19.92,24.64-20.89,26.01-12.34,17.67-34.05,23.56-37.86,24.62-27.98,7.62-53.2-5.78-65.26-12.15-7.01-3.74-14.83-8-21.09-16.43-3.59-4.84-3.85-8.67-10.07-17.54-5.72-8.25-8.99-10.5-10.1-11.22-3.74-2.43-5.64-2.45-7.09-4.89-2.9-4.74,1.95-9.35-.34-12.9-2.64-4.18-10.89-.28-19.27-2.91-23.9-7.39-35.31-8.65-17.27-33.02Z" style="fill: #614e46;"/>
    <path id="Hoved-5" data-name="Hoved" d="m427.18,243.55c-6.18-7.13-6.53-12.26-10.26-12.37s-6.72,5.17-11.98,13.94c-3.28,5.52-5.46,9.22-6.97,14.91-.61,2.22-2.94,11.59-.71,22.11,0,0,0,.14,2.42,10,0,0,1.6,5.77,2.48,10.86.39,2.44,1.26,7.46.94,13.94-.34,6.19-1.33,6.19-.76,8.98,1.51,6.65,8.3,10.4,10.59,11.62,2.68,1.49,6.16,3.43,10.85,3.12,1.29-.09,7.34-.49,10.96-5.38,2.93-3.9,3.47-9.45,1.27-12.79-.92-1.32-1.79-1.69-2.91-3.65h0c-1.29-2.16-1.5-5.34-1.55-6.06-.15-3.4,7.49-5,14.03-11.69,2.06-2.1,5.23-5.87,7.15-11.22.32-.89,1.51-4.6,1.54-9.9.01-2.03-.14-12.18-7.2-21.14-6.58-8.63-11.56-5.83-19.88-15.28Z" style="fill: #6e5c55;"/>
    <path id="Hoved-6" data-name="Hoved" d="m426.29,230.33c-5.57-1.51-11.02,1.03-12.35,1.7-5.01,2.37-7.4,6.31-11.98,13.94-3.28,5.52-5.46,9.22-6.97,14.91-.61,2.22-2.94,11.59-.71,22.11,0,0,0,.14,2.42,10,0,0,1.6,5.77,2.48,10.86.39,2.44,1.26,7.46.94,13.94-.34,6.19-1.33,6.19-.76,8.98,1.51,6.65,8.3,10.4,10.59,11.62,3.08,1.68,6.47,3.56,10.85,3.12,6.94-.76,13.43-7,14.23-13.3.68-5.63-3.55-8.69-1.39-13.91.72-1.79,1.52-2.21,4.08-4.92,2.55-2.71,9.22-9.84,12.04-18.67.38-1.11,1.56-4.97,1.54-9.9,0-7.77-2.92-12.87-7.2-21.14-11.39-22.46-11.51-27.6-17.78-29.36Z" style="fill: #614e46;"/>
    <path id="Venstre_forben-3" data-name="Venstre forben" d="m438.99,446.92c-2.57-.92-4.46-1.95-4.55-3.18-.05-.72.54-1.05,1.79-2.73.28-.38.9-1.37,2.13-3.41,1.64-2.72,8.91-15.48,11.66-20.96,6.9-13.82,5.33-22.35,13.24-39.14,8.24-17.61,13.99-19.02,35.07-47.94.56-.76,2.02-2.75,4.56-4.52,10.38-7.16,25.12-1.55,26.61-.92,3.67,1.49,8.36,3.36,10.33,7.8,1.71,4.02.39,8.1-.25,9.82-3.13,8.85-11.39,12.45-35.92,27.46-9.71,5.95-14.95,9.35-19.83,15.78-.84,1.07-4.32,5.81-7.11,12.82-2.08,5.22-2.9,9.92-4.47,19.39-1.69,9.91-2.49,14.9-2.5,15.85.04,2.83.35,5.2-1.26,7.27-2.03,2.6-4.8,2.14-6.8,5.1-.62.99-.83,2.38-1.4,5.17-.57,2.87-.5,3.88-1.16,4.14-1.18.52-2.49-1.94-5.5-3.77-4.21-2.69-6.68-1.07-14.63-4.02Z" style="fill: #614e46;"/>
    <path id="Man-3" data-name="Man" d="m400.02,262.29c-3.03,2.38-9.89,7.78-18.24,6.75-6.97-.84-12.41-5.99-11.81-7.26.4-.9,3.45.49,7.76-.96,4.01-1.36,7.29-4.63,6.74-5.97-.55-1.41-4.52.52-7.63-1.59-2.95-1.98-3.16-6.25-3.39-10.8-.23-4.48.27-11.7,2.3-12.06,1.65-.26,2.13,4.5,6.71,7.17,3.4,2.02,7.11,1.7,9.9,1.44,4.46-.37,8.19-2.44,15.59-6.57,4.54-2.56,5.98-3.74,5.89-5.04-.15-2.17-4.48-3.33-4.29-3.92.25-.74,5.91,2,11.1.12,3.86-1.42,7.17-5.27,6.6-8.07-.55-2.5-4.04-3.5-3.84-3.95.4-.83,9.69,5.15,16.19,2.32,5.09-2.23,6.23-8.98,7.86-8.59,1.39.34-.27,4.95,2.28,7.9,2.31,2.67,6.7,2.45,14.8,1.98,7.42-.43,11.12-.68,14.51-2.28,8.03-3.81,10.12-11.06,13.06-10.24,2.1.66,2.52,4.69,2.62,6.21.67,6.56-3.31,9.51-1.88,11.59,2.02,2.91,13.09,1.44,21.51-4.43,7.47-5.22,10.28-12.02,11.69-11.38,2.27.94-5.05,17.54-1.34,19.61,1.18.65,3.81-.91,9.08-4.02,7.96-4.75,9.49-6.88,11.13-6.27,3.11,1.1,3.31,10.74.8,18.6-.69,2.15-6.61,20.26-20.26,22.99-13.05,2.62-17.16-12.13-41.98-16.26-3.46-.57-9.87-1-22.77-1.88-11.52-.75-17.4-1.15-20.94-.69-4.52.52-18.17,2.17-28.09,11.69-6.23,5.65-4.68,8.37-11.68,13.85Z" style="fill: #55453f;"/>
    <path id="_Øre-5" data-name="Øre" d="m390.74,229.39c2.7-.54,6.53-1.24,11.1.12,3.1.88,5.03,2.42,8.8,5.36,5.45,4.21,8.1,6.35,8.12,8.82,0,4.43-7.16,9.92-12.7,8.91-6.69-1.15-5.96-10.56-16.65-15.86-3.54-1.79-7-2.36-6.94-3.74.09-2.11,6.92-3.37,8.27-3.61Z" style="fill: #614e46;"/>
    <path id="_Øre-6" data-name="Øre" d="m393.87,235.35c1.32.35,3.87,1.05,6.36,2.98,1.12.87.81.82,3.93,4.16,3.69,3.96,4.93,4.39,5.85,4.47,1.76.17,2.76-.69,3.1-.28.58.76-1.62,4.17-4.7,4.67-1.05.22-1.98-.01-2.44-.13-4.1-1.1-4.9-5.11-9.57-10.02-3.6-3.82-7.82-6.73-7.98-6.79h0c0-.07,2.98.23,5.46.94Z" style="fill: #6e5c55;"/>
    <path id="_Øje-3" data-name="Øje" d="m410.58,288.15c-2.18-.8-3.3-3.91-2.62-6.21.5-1.63,1.57-1.48,3.34-4.51.82-1.36.93-1.95,1.46-2.06,1.28-.23,3.26,2.1,3.81,4.61.76,3.43-1.15,7.7-3.92,8.32-.15.01-1.12.22-2.06-.15Z" style="fill: #383635;"/>
    <path d="m415,273.62c-.17-.21-1.24.81-4.38,2.69-2.33,1.46-3,1.65-3.84,2.73-.49.61-1.55,1.85-1.44,3.51.03.51.15,1.15,2.73,4.39,1.91,2.41,2.24,2.82,2.39,2.74s-.05-.72-.81-2.99c-.98-3.27-1.08-3.63-1.03-4.07.08-1.09.65-1.57,2.34-3.64,2.19-2.47,4.37-5.08,4.05-5.35Z" style="fill: #6e5c55;"/>
    <path d="m409.27,329.6c-1.51-2.08-3.57-2.23-3.39-2.89.18-.74,3.09-1.44,5.22-.28,2.29,1.22,3.26,4.43,2.34,5.36-.5.54-1.72.41-2.51.02-.94-.44-.99-1.17-1.67-2.21Z" style="fill: #6e5c55;"/>
  </g>
</svg>