<?xml version="1.0" encoding="utf-8"?>
<!-- Generator: Adobe Illustrator 27.5.0, SVG Export Plug-In . SVG Version: 6.00 Build 0)  -->
<svg version="1.1" id="Layer_1" xmlns="http://www.w3.org/2000/svg" xmlns:xlink="http://www.w3.org/1999/xlink" x="0px" y="0px"
	 viewBox="0 0 1149.4 430.2" style="enable-background:new 0 0 1149.4 430.2;" xml:space="preserve">
<style type="text/css">
	.st0{display:none;}
	.st1{fill:#7C6C61;}
	.st2{fill:#806D63;}
	.st3{fill:#B2A398;}
	.st4{fill:#C1B0A4;}
	.st5{fill:#AD9B8F;}
	.st6{fill:#A59083;}
	.st7{fill:#383635;}
	.st8{fill:#AD9C93;}
	.st9{fill:#55453F;}
	.st10{fill:#827C79;}
	.st11{fill:#6E5C55;}
	.st12{fill:#614E46;}
</style>
<g id="Layer_1_00000163758800052321288640000004102374154223508126_" class="st0">
	
		<image style="display:inline;overflow:visible;enable-background:new    ;" width="8" height="8" id="Pixellag_xA0_Image_00000003797926347700750090000012778381113740306084_" xlink:href="C58CD985.png"  transform="matrix(62.4938 0 0 61.6118 688.9387 -30.42)">
	</image>
</g>
<g id="Layer_2_00000061462804311040656820000016116662033720834748_">
	<path id="Hale" class="st1" d="M1055.2,115.9c-3.3,8.7-15.8,14-16.6,14.4c-3,1.2-4.3,1.3-7.2,3c-5.7,3.4-10.9,9.6-9.6,11.8
		c1.2,1.9,7-0.3,19.5-3.2c19.6-4.7,36.7-6.7,36.6-8.7c-0.1-1-4.7-0.5-6.5-3.6c-1.5-2.6-0.1-6,0.1-6.5c2.6-6.2,12.2-6.5,21.9-9.4
		c19.9-6,33.4-21.2,32-23.9c-0.8-1.5-5.9,0.6-7.2-1.5c-1.2-2.1,2.1-6.9,6-9.7c4.3-3.3,6.8-2.4,11.6-4.6c9.4-4.2,14.9-14.2,13.7-15.5
		c-0.5-0.6-2.4,0.9-7.2,3c0,0-7.9,3.6-18.1,5.4c-7.6,1.4-9.9,0.4-18.6,0.7c-4.2,0.2-15.7,0.7-27,5c-6.4,2.5-24,9.3-26.4,22
		C1050.2,103.8,1058.4,107.5,1055.2,115.9z"/>
	<path id="Hov_venstre_bagben" class="st2" d="M996.7,337.6c-2.2-2.6,2.8-7.4,6.6-19.3c1-3,1.2-4.3,2.5-4.9c2.5-1.2,4.9,2.5,13,6.6
		c4.4,2.2,6,2.2,7.3,4.3c1.6,2.7,1.1,6.4-0.5,9c-1.3,2.1-3,3.1-5,4.2c-3.8,2.1-7.3,2.6-9,2.7c-4.8,0.5-8.3-0.4-12.2-1.5
		C997.9,338.3,997,338.1,996.7,337.6z"/>
	<path id="Hov_højre_bagben" class="st2" d="M904.4,317.6c-2.2-2.6,2.8-7.4,6.6-19.3c1-3,1.2-4.3,2.5-4.9c2.5-1.2,4.9,2.5,13,6.6
		c4.4,2.2,6,2.2,7.3,4.3c1.6,2.7,1.1,6.4-0.5,9c-1.3,2.1-3,3.1-5,4.2c-3.8,2.1-7.3,2.6-9,2.7c-4.8,0.5-8.3-0.4-12.2-1.5
		C905.6,318.2,904.8,318,904.4,317.6z"/>
	<path id="Hov_venstre_forben" class="st2" d="M709.3,227.4c0.3-3.3,7.2-3.2,18.5-8.7c2.8-1.4,4-2.2,5.2-1.6c2.6,1,1.6,5.3,4.4,13.9
		c1.5,4.7,2.7,5.9,2,8.2c-0.8,3-3.8,5.3-6.7,6c-2.4,0.6-4.3,0-6.5-0.6c-4.2-1.2-6.9-3.5-8.2-4.5c-3.7-3-5.5-6.2-7.5-9.8
		C709.7,228.6,709.3,227.9,709.3,227.4z"/>
	<path id="Hov_højre_forben" class="st2" d="M691.5,182.5c0.2-3.4,7.1-3.5,18-9.7c2.7-1.5,3.8-2.3,5.2-1.9
		c2.6,0.9,1.8,5.2,5.1,13.7c1.8,4.6,2.9,5.7,2.4,8.1c-0.7,3.1-3.5,5.4-6.4,6.3c-2.4,0.7-4.3,0.2-6.5-0.3c-4.3-1-7.1-3.1-8.5-4.1
		c-3.8-2.8-5.8-6-8-9.5C692,183.8,691.5,183,691.5,182.5z"/>
	<path id="Højre_forben" class="st3" d="M826.5,144c-4.8,2.8-8.3,2.5-17.8,3.1c-17.6,1.2-17.1,2.9-34.8,3.7
		c-8.8,0.4-8.8,0-12.4,0.6c-8.3,1.5-11.4,4.4-22.9,9.3c-4.1,1.8-10.2,4.3-18.4,6.8c-10.1,3.1-16.8,4.2-17,6.8c0,0.8,0.6,1.2,5.6,6.1
		c2.8,2.8,4.3,4.2,4.8,4.8c4,5.3,3,9.3,5.4,10.1c1.7,0.5,3.5-0.9,7-3.4c2.9-2.2,2.7-2.9,4.7-3.9c3.9-2,5.8-0.5,9.2-1.9
		c4.3-1.8,3.8-5.2,8.1-9.1c4-3.7,8.7-4.5,12.4-5.1c3.2-0.6,6-0.6,20.5,1.9c7.4,1.3,8.7,1.6,13.3,2.4c11.4,1.9,17.2,2.9,22.1,2.8
		c9.5-0.2,27.1-4.3,30.8-16.5c3.4-10.8-5.3-25.1-11.5-25.1C832.6,137.4,831.8,140.8,826.5,144z"/>
	<path id="Højre_bagben" class="st3" d="M942.3,194.2c0.9-6.7,1.9-13.8,6.7-18.4c6.3-5.9,17.2-6,24.9-2.2
		c9.7,4.9,12.5,15.6,13.7,19.7c3,11.1-2.3,13,1.2,25.8c0,0,1.8,6.6,2.4,15.5c0.3,3.8,0.2,6.2-1.3,7.8c-1.9,1.9-4.5,0.7-9.1,1
		c-6.9,0.2-13.3,3.4-17,7.1c-1.8,1.8-1.4,2.2-5.6,11c-6.4,13.5-7,12-9.3,18.5c-2.5,7-2.1,9.4-5.1,11.8c-3,2.3-6.3,2-7.9,5.1
		c-0.8,1.6-0.9,4.1-1.1,5.4c-0.2,2.8,0.2,3-0.2,3.7c-1.3,2.3-6.6,0.3-17.8-0.6c-5-0.4-6.6-0.2-7.5-1.5c-1.8-2.5,1.5-7.5,4.6-12.2
		c7.7-11.5,11.6-17.3,16.2-23.6c9.9-13.4,14.8-20,16-25.8c1.2-6,1.8-17.4-1.5-27c-0.6-1.7-2.1-5.7-2.6-11.5
		C942,202,941.8,198.6,942.3,194.2z"/>
	<path id="Body" class="st4" d="M819.8,25.5c3.3-1.3,8,0.8,17.3,5.1c7.2,3.3,14.3,6.6,21.6,12.6c2.2,1.8,7.4,6.3,20.8,26.7
		c13.9,21.4,14.9,26.7,24,33.6c6.3,4.7,11.8,6.7,19.8,9.5c4.7,1.7,13.9,4.6,44.1,7.5c21.7,2.1,22.7,1.2,31.3,3.4
		c8.9,2.3,19.6,5.3,29.8,14.2c8.7,7.5,12.8,15.8,18,26.2c4.3,8.7,6.6,13.1,6.8,19.4c0.4,10.3-4.5,18.8-7.6,24.4
		c-6.3,11.3-12.4,15-10.7,19.1c1.1,2.6,4.6,3.8,11.7,6c5.5,1.8,8.4,1.8,12.5,4.5c2.7,1.8,4.3,2.8,4.9,4.7c0.8,2.3,0,5.3-10.3,17.4
		c-6.4,7.5-7.2,7.7-10.4,12.3c-0.9,1.3-4.4,6.2-7.9,13.2c-3.2,6.3-4.8,9.5-5.6,13.5c-0.8,4.3,0,5.4-0.6,18.2
		c-0.2,3.4-0.4,6.1-2.4,7.9c-2.1,1.9-5.2,1.8-6.8,1.8c-4.4-0.1-5.2-2.2-10-2.9c-4.9-0.7-6.7,1.2-8-0.1c-2-2,0.9-8.1,4.9-16.9
		c0.6-1.2,1.7-3.7,3-7c0.6-1.7,0.8-2.4,1.7-4.7c1.3-3.6,2.3-6.1,2.6-7c2.9-7.3,4.1-15.8,7.8-24.8c5.6-13.4,9.1-15.5,7.6-18.9
		c-2.8-6.3-14.8-0.1-28.5-7.5c-9.8-5.2-24-19-25.5-34.4c-0.3-3-0.3-7.7-3.6-10.3c-3.8-3-9.6-1.4-13-0.5c-16.7,4.6-30.4,10.6-32,11.3
		c-20.2,8.7-41.5,2-45.2,0.9c-27.5-8.6-40.8-34-47.2-46.1c-3.7-7.1-7.8-15-8.2-25.8c-0.3-6.2,1.7-9.6,1.5-20.7
		c-0.1-10.3-1.5-14-2-15.3c-1.7-4.1-3.3-5.2-3.1-8.1c0.3-5.7,6.9-7.1,7-11.4c0.2-5.1-8.9-6.2-14.3-13
		C799.9,44.2,791.1,36.9,819.8,25.5z"/>
	<path id="Hoved_00000002371905894542580940000004856043492771095196_" class="st5" d="M828.4,43.4c-1.1-9.6,1.5-14.2-1.5-16.3
		c-3-2.1-8.5,0.8-17.8,5.6c-5.8,3-9.7,5.1-14.2,9.2c-1.8,1.6-9,8.5-13.1,18.9c0,0-0.1,0.1-3.6,10c0,0-1.9,5.9-4.1,10.8
		c-1.1,2.3-3.2,7.2-7.1,12.7c-3.8,5.2-4.6,4.7-5.7,7.4c-2.5,6.6,1,13.6,2.2,15.9c1.4,2.8,3.2,6.3,7.2,8.6c1.1,0.6,6.4,3.6,12.1,1.3
		c4.6-1.8,8.2-6.3,8.3-10.4c0-1.6-0.5-2.4-0.3-4.8l0,0c0.2-2.6,1.8-5.5,2.1-6.1c1.8-3,9-0.3,18.2-2.5c2.9-0.7,7.6-2.3,12.2-5.9
		c0.8-0.6,3.8-3.2,6.9-7.8c1.2-1.8,6.8-10.7,6-22.3C835.6,56.4,829.9,56.2,828.4,43.4z"/>
	<path id="Hoved" class="st4" d="M835.1,31.4c-3.8-4.3-9.7-5.1-11.2-5.2c-5.5-0.7-9.7,1.5-17.8,5.6c-5.8,3-9.7,5.1-14.2,9.2
		c-1.8,1.6-9,8.5-13.1,18.9c0,0-0.1,0.1-3.6,10c0,0-1.9,5.9-4.1,10.8c-1.1,2.3-3.2,7.2-7.1,12.7c-3.8,5.2-4.6,4.7-5.7,7.4
		c-2.5,6.6,1,13.6,2.2,15.9c1.6,3.1,3.4,6.6,7.2,8.6c6.2,3.1,15.1,1.2,19.3-3.8c3.7-4.5,2-9.5,6.7-12.9c1.6-1.2,2.5-1.1,6.2-2.1
		s13.2-3.6,20.5-9.7c0.9-0.8,4.1-3.5,6.9-7.8c4.4-6.8,4.8-12.8,6-22.3C836.5,40.9,839.3,36.4,835.1,31.4z"/>
	<path id="Venstre_forben" class="st4" d="M723.5,226.9c-1.6-2.2-2.6-4.1-2-5.2c0.4-0.7,1-0.6,3-1.4c0.4-0.2,1.5-0.7,3.7-1.8
		c2.9-1.5,16.1-8.6,21.5-11.9c13.5-8.3,17-16.6,33-26.9c16.8-10.9,22.3-8.9,56.1-22.7c0.9-0.4,3.2-1.3,6.3-1.5
		c12.6-0.6,21.7,12.3,22.6,13.7c2.2,3.3,5,7.5,4.2,12.4c-0.8,4.4-4.2,7.3-5.7,8.4c-7.6,6-16.5,4.6-45.2,4.4c-11.4-0.1-17.7,0-25.3,3
		c-1.3,0.5-6.9,2.7-13.1,7.3c-4.7,3.4-8,7.1-14.6,14.5c-7,7.7-10.5,11.6-11,12.4c-1.6,2.5-2.6,4.7-5.1,5.6c-3.1,1.2-5.2-0.7-8.5,0.7
		c-1.1,0.5-2,1.6-4.1,3.7c-2.1,2.2-2.6,3.1-3.3,3c-1.3-0.2-1-3-2.4-6.3C731.4,233.7,728.4,233.8,723.5,226.9z"/>
	<path id="Man" class="st1" d="M795.3,45c-3.9,0.4-12.6,1.4-18.9-4c-5.3-4.5-6.9-12-5.7-12.7c0.8-0.6,2.6,2.3,7,3.4
		c4.1,1,8.6-0.1,9-1.5c0.3-1.5-4-2-5.4-5.5c-1.3-3.3,0.9-7.2,3.3-11.2c2.3-4,6.8-10,8.7-9.2c1.5,0.7-0.8,5.1,1.5,9.9
		c1.7,3.6,4.9,5.3,7.4,6.6c3.9,2.1,8.2,2.3,16.6,2.8c5.2,0.2,7.1,0,7.7-1.2c1.1-2-1.8-5.3-1.3-5.7c0.6-0.5,3.8,5,9.1,6.1
		c4,0.9,8.9-0.7,10-3.4c1-2.5-1.4-5.2-1-5.5c0.8-0.5,5.1,9.8,12.1,10.8c5.5,0.8,10.2-4.4,11.3-3.2c1,1.1-3,4.2-2.6,8.1
		c0.4,3.6,4.2,5.8,11.1,9.8c6.4,3.7,9.6,5.5,13.3,5.9c8.8,1,14.6-4.1,16.6-1.8c1.4,1.7-0.6,5.5-1.3,6.8c-3.1,6.1-8.1,6.5-8.1,9.1
		c0,3.6,10,8.4,20.3,7.8c9.1-0.5,15.3-4.9,16.1-3.6c1.4,2-14.1,12.5-12.2,16.3c0.6,1.2,3.7,1.3,9.8,1.4c9.3,0.2,11.7-0.8,12.8,0.6
		c2,2.6-3.3,11.1-9.8,16.6c-1.8,1.5-16.9,14-29.7,9c-12.3-4.8-7.4-19.9-25.6-37c-2.5-2.4-7.6-6.2-17.8-14c-9.1-6.9-13.8-10.5-17-12
		c-4-2-16.3-8-29.9-5.1C804.4,40.8,804.2,44,795.3,45z"/>
	<path id="Øre" class="st4" d="M806.1,11.3c2.2,0.7,6.1,2.4,9.1,6.1c2,2.5,2.8,4.8,4.3,9.4c2.1,6.6,3.1,9.9,1.8,12.1
		c-2.5,3.9-11.5,4.7-15.5,0.9c-4.4-4.2-0.3-11.1-4.9-22.9c-1.2-3.2-2.6-5.5-3.6-7"/>
	<path id="Øre_00000102540453098176376160000001192923848022703525_" class="st6" d="M805.4,18.2c0.9,1,2.6,3,3.6,6.1
		c0.4,1.4,0.2,1.2,0.9,5.8c0.8,5.5,1.6,6.5,2.3,7.1c1.4,1.1,2.7,0.9,2.7,1.4c0.1,1-3.7,2.8-6.5,1.5c-1-0.4-1.6-1.1-2-1.4
		c-2.8-3.2-1.2-7.1-2.3-13.9c-0.8-5.3-2.7-10.1-2.8-10.3l0,0C801.4,14.3,803.7,16.2,805.4,18.2z"/>
	<path id="Øje" class="st7" d="M789.5,73.2c-1.4-1.9-0.5-5.2,1.3-6.8c1.3-1.1,2.1-0.4,5.3-2.1c1.4-0.7,1.9-1.2,2.4-1
		c1.2,0.5,1.5,3.6,0.6,6.1c-1.3,3.4-5.3,6.1-7.9,5.1C791,74.4,790,74,789.5,73.2z"/>
	<path class="st8" d="M801.3,63c0-0.3-1.5,0-5.1,0c-2.8,0-3.4-0.2-4.7,0.3c-0.8,0.3-2.3,0.8-3.2,2.3c-0.3,0.5-0.5,1.1-0.2,5.3
		c0.2,3.1,0.3,3.7,0.4,3.7s0.4-0.7,1-3c1-3.4,1.2-3.7,1.4-4.1c0.7-0.9,1.4-1,4-1.9C798.1,64.5,801.4,63.4,801.3,63z"/>
	<path class="st8" d="M765,108.6c-0.1-2.6-1.7-3.9-1.2-4.4c0.6-0.5,3.4,0.4,4.5,2.6c1.2,2.3,0.2,5.6-1.1,5.9
		c-0.7,0.2-1.7-0.6-2.1-1.3C764.6,110.5,765,109.9,765,108.6z"/>
</g>
<g id="Layer_2_00000124878737467509940870000007632158276124999568_">
	<path id="Hale_00000054245740892441446260000011268470369113479103_" class="st1" d="M87.5,95.6C88.4,82.3,72.7,70.9,67,66.8
		C57,59.5,45.7,56,41.5,54.7c-8.5-2.6-11.1-2.2-18.2-5.6C13.7,44.6,6.8,38.9,6.8,38.9c-4.2-3.4-5.7-5.3-6.4-4.9
		C-1.1,35,1.7,46.4,9.9,53c4.2,3.5,6.9,3.2,10.3,7.6c3.1,3.8,5.1,9.4,3.4,11.2c-1.8,1.8-6.4-1.6-7.6-0.4
		c-2.1,2.3,7.3,20.9,25.5,32.1c8.9,5.4,18.3,8.2,19.2,15.1c0.1,0.5,0.6,4.3-1.6,6.5c-2.6,2.7-7,0.9-7.4,1.9
		c-0.7,1.9,15.8,8.5,34,18.3c11.5,6.2,16.8,9.9,18.5,8.3c1.8-1.8-1.7-9.3-6.4-14.2c-2.4-2.5-3.7-2.9-6.4-4.9
		c-0.7-0.6-11.7-9.1-12.7-18.7C77.7,106.8,86.8,105.2,87.5,95.6z"/>
	<path id="Hov_venstre_bagben_00000011016408731001955380000006143336194328865432_" class="st2" d="M75.5,351.9
		c-4.2,0-8,0.1-12.5-1.7c-1.7-0.6-5-2-8.2-5.1c-1.7-1.6-3.2-3.1-3.9-5.5c-0.8-3-0.4-6.8,1.9-9c1.9-1.8,3.4-1.4,8.4-2.4
		c9.2-1.9,12.4-4.9,14.7-3.1c1.1,0.9,1,2.3,1.2,5.5c0.7,12.8,4.4,18.9,1.5,20.9C78,351.8,77.1,351.8,75.5,351.9z"/>
	<path id="Hov_højre_bagben_00000044137283136150345380000001966731625999409540_" class="st2" d="M172.4,356.3
		c-4.2,0-8,0.1-12.5-1.7c-1.7-0.6-5-2-8.2-5.1c-1.7-1.6-3.2-3.1-3.9-5.5c-0.8-3-0.4-6.8,1.9-9c1.9-1.8,3.4-1.4,8.4-2.4
		c9.2-1.9,12.4-4.9,14.7-3.1c1.1,0.9,1,2.3,1.2,5.5c0.7,12.8,4.4,18.9,1.5,20.9C174.9,356.2,174,356.2,172.4,356.3z"/>
	<path id="Hov_venstre_forben_00000084499596541344318210000005946374174445425581_" class="st2" d="M390.9,320.1
		c-3,3-5.5,5.7-10,7.8c-1.6,0.7-4.9,2.2-9.4,2.3c-2.4,0.1-4.4,0.1-6.7-1.1c-2.7-1.5-5.1-4.5-5.1-7.7c0-2.5,1.5-3.3,4.2-7.6
		c5.1-7.8,5.2-12.3,8.1-12.7c1.4-0.2,2.4,0.9,4.8,3c9.7,8.4,16.6,10.1,16,13.5C392.7,318.1,392.1,318.7,390.9,320.1z"/>
	<path id="Hov_højre_forben_00000150804639370111420860000011791814621610719895_" class="st2" d="M420.2,279.9
		c-3.1,2.9-5.8,5.5-10.4,7.3c-1.7,0.7-5,2-9.5,1.9c-2.3,0-4.4-0.1-6.6-1.4c-2.6-1.6-4.8-4.7-4.7-8c0.2-2.5,1.6-3.3,4.6-7.4
		c5.5-7.6,5.8-12.1,8.6-12.3c1.5-0.1,2.3,1.1,4.7,3.3c9.2,8.9,16,10.9,15.3,14.3C422.1,278.2,421.5,278.8,420.2,279.9z"/>
	<path id="Højre_forben_00000112590912143609000290000009204071442734837170_" class="st3" d="M291,195.1
		c-6.2-1.6-18.6,10.3-18,21.9c0.5,13.1,16.9,21.8,26.3,24.5c4.9,1.4,10.8,1.9,22.7,3c4.7,0.4,6.2,0.4,13.8,1.1
		c15.1,1.3,17.9,2.1,20.9,3.5c3.5,1.6,7.9,3.6,11,8.3c3.2,5,1.9,8.3,5.6,11.1c3,2.3,5.3,1.3,8.6,4.3c1.7,1.6,1.3,2.2,3.6,5.1
		c2.8,3.4,4.2,5.3,6,5.2c2.7-0.1,2.7-4.4,8.1-8.6c0.7-0.5,2.5-1.5,6-3.5c6.3-3.5,7-3.7,7.2-4.6c0.5-2.6-5.9-5.4-15.1-11.2
		c-7.5-4.7-12.9-8.8-16.5-11.6c-10.1-7.9-12.4-11.6-20.3-15.3c-3.4-1.6-3.5-1.2-12.2-3.9c-17.4-5.4-16.4-7-33.6-12.8
		c-9.3-3.1-12.8-3.7-16.9-7.8C293.9,199.4,294,195.8,291,195.1z"/>
	<path id="Højre_bagben_00000067942740137597759680000008643304719250771845_" class="st3" d="M167.8,232.8
		c-2,5.6-4.6,9.2-5.6,10.8c-5.7,8.6-8.2,20.1-8.6,26.4c-0.4,6.1,2.8,13.9,9.1,29.8c3,7.5,5.3,14.2,9.9,27.7
		c1.8,5.5,3.8,11.3,1.4,13.4c-1.2,1-2.7,0.5-7.8-0.5c-11.3-2-17-1.5-17.8-4.1c-0.2-0.7,0.3-0.9,0.8-3.7c0.2-1.4,0.8-3.9,0.4-5.7
		c-0.8-3.6-4.1-4.1-6.5-7.2c-2.3-3.1-1.3-5.4-1.9-13.1c-0.6-7-1.5-5.7-4.4-20.8c-1.9-9.9-1.4-10.2-2.7-12.4
		c-2.7-4.6-8.2-9.4-15.1-11.5c-4.4-1.4-7.3-0.9-8.7-3.3c-1.1-1.9-0.6-4.3,0.7-8.1c3-8.6,6.5-14.7,6.5-14.7c6.8-11.8,2-15,7.9-25.3
		c2.2-3.8,7.8-13.6,18.8-16c8.6-1.8,19.4,1.1,24.1,8.7c3.6,5.8,2.7,13.1,1.9,20C169.6,227.8,168.5,231.2,167.8,232.8z"/>
	<path id="Body_00000145054155846896472700000006645125528863167405_" class="st4" d="M330.4,127c-7.2,5.4-16.5,4.1-17.6,9.2
		c-1,4.3,5.2,7.4,3.9,13.2c-0.6,2.9-2.4,3.6-5.2,7.2c-0.8,1.1-3.2,4.4-6,14.6c-3.1,11-2.1,14.9-3.9,21c-3.3,10.6-9.4,17.4-14.9,23.4
		c-9.5,10.3-29.5,32-59,33.3c-4,0.2-26.9,1.2-44.7-12.7c-1.4-1.1-13.4-10.7-28.8-19.6c-3.1-1.8-8.5-4.8-13-2.9
		c-3.9,1.7-5.2,6.4-6.3,9.3c-5.6,14.9-23.3,24.9-34.4,27.5c-15.6,3.7-25.9-5.6-30.3-0.1c-2.4,3,0.5,6,2.5,20.8
		c1.4,9.9,0.3,18.6,1.3,26.7c0.1,1,0.4,3.8,0.8,7.7c0.2,2.5,0.3,3.2,0.4,5.1c0.4,3.6,0.8,6.4,1.1,7.8c1.7,9.8,2.9,16.5,0.4,18.1
		c-1.6,1-2.8-1.4-7.9-2c-4.9-0.6-6.3,1.3-10.7,0.3c-1.6-0.4-4.7-1.1-6.3-3.6c-1.5-2.3-1.1-5.1-0.3-8.4c2.7-12.9,3.9-13.8,4.2-18.3
		c0.3-4.2-0.5-7.8-2-14.9c-1.6-7.9-3.8-13.7-4.4-15.2c-2-5.5-2.8-5.8-7.1-15c-7-14.7-7-17.9-5.6-20c1.1-1.7,3-2.4,6.1-3.4
		c4.8-1.6,7.7-0.9,13.6-1.2c7.6-0.4,11.4-0.6,13.2-2.9c2.8-3.7-2.3-9-5.6-21.8c-1.6-6.4-4.2-16.1-1.2-26.2c1.9-6.2,5.3-10,11.8-17.5
		c8-9,14.2-16.1,24.8-21.3c12.5-6.2,24-6.3,33.4-6.3c9.1,0.1,9.9,1.2,32,4.8c30.8,5,40.7,4.5,45.7,4.1c8.7-0.7,14.7-1.2,22.2-4.3
		c10.8-4.4,13.2-9.4,32.7-27c18.6-16.7,25-19.8,27.7-21c8.8-4,16.8-5.4,24.8-6.8c10.4-1.8,15.6-2.6,18.5-0.5
		C361.7,106.9,351.1,111.8,330.4,127z"/>
	<path id="Hoved_00000157989087301246962840000007417012085576868238_" class="st5" d="M308.8,125.5c-3.9,11.3-0.6,21.7,0,23.7
		c1.8,5.4,4.2,8.7,4.8,9.5c3.6,4.8,7.9,7.6,10.6,9.1c8.5,4.7,16.4,3.8,17.4,7.3c0.2,0.7,1,4,0.5,6.6l0,0c-0.4,2.3-1.1,3-1.6,4.6
		c-1,4.1,1.3,9.5,5.5,12.5c5.1,3.8,11.1,2.2,12.4,1.9c4.6-1.2,7.3-4.3,9.4-6.6c1.8-2,7.1-8,6.4-15.2c-0.4-3-1.3-2.7-3.7-8.8
		c-2.5-6.5-3.3-11.8-3.7-14.4c-0.8-5.4-1.2-11.8-1.2-11.8c-0.9-10.8-1-10.9-1-10.9c-1.3-11.4-6.7-20.1-8-22.2
		c-3.3-5.3-6.7-8.3-11.7-12.9c-8-7.2-12.6-11.6-16.2-10.3c-3.6,1.3-2.2,6.6-5.8,15.8C318.1,115.9,312.3,114.6,308.8,125.5z"/>
	<path id="Hoved_00000044886125536053346480000000873569693270179240_" class="st4" d="M312,125.4c-1.4,9.8-2.5,15.9,0,23.7
		c1.6,5,4,8.5,4.8,9.5c5.6,8,14.4,13.1,17.8,15c3.4,1.9,4.3,2.1,5.6,3.7c3.8,4.6,0.7,9.1,3.3,14.5c2.8,6.1,11.2,10.4,18.1,8.9
		c4.4-1,7-4,9.4-6.6c1.8-2,7.1-8,6.4-15.2c-0.4-3-1.3-2.7-3.7-8.8c-2.5-6.5-3.3-11.8-3.7-14.4c-0.8-5.4-1.2-11.8-1.2-11.8
		c-0.9-10.8-1-10.9-1-10.9c-1.3-11.4-6.7-20.1-8-22.2c-3.3-5.3-6.7-8.3-11.7-12.9c-6.9-6.3-10.6-9.5-16.2-10.3
		c-1.5-0.3-7.6-1.1-12.5,2.3C314,93.7,315.6,99,312,125.4z"/>
	<path id="Venstre_forben_00000031200660243173379950000015122930350719692215_" class="st4" d="M366,322.1
		c-2.3,2.8-2.8,5.7-4.1,5.6c-0.7-0.1-1-1.1-2.5-3.8c-1.5-2.6-2.1-4-3.1-4.8c-2.9-2.4-5.4-1-8.3-3c-2.2-1.6-2.7-4.1-3.6-7
		c-0.3-1-2.8-5.7-7.7-15.2c-4.6-9.1-7-13.6-10.7-18.2c-5-6.2-9.9-9.9-11.1-10.7c-6.8-4.9-13-6.7-24.4-9.6
		c-28.6-7.3-37.8-8.3-43.8-16.2c-1.2-1.5-3.8-5.2-3.5-9.9c0.4-5.1,4.3-8.5,7.4-11.2c1.2-1.1,13.6-11.5,26-7.6c3,1,5.1,2.5,5.9,3.1
		c29.9,22.5,35.9,22.1,49.7,37.3c13.2,14.5,14.5,23.6,25.7,35.4c4.5,4.7,15.7,15.2,18.2,17.5c1.9,1.7,2.8,2.5,3.2,2.8
		c1.8,1.3,2.4,1.4,2.6,2.2c0.3,1.3-1.2,2.9-3.3,4.7C372.1,318.9,369.2,318.1,366,322.1z"/>
	<path id="Man_00000171715404994327881030000012528443479683148205_" class="st1" d="M339.5,103.6c-12.7-6.5-26.4-3.7-31-2.8
		c-3.6,0.7-9.1,3-20,7.4c-12.2,5-18.2,7.5-21.4,9.2c-22.6,12.2-21.7,28.4-35.2,30c-14.1,1.6-25.8-14.8-27.2-16.8
		c-5-7.2-8-17-5.4-19.1c1.4-1.2,3.6,0.5,12.8,2.8c6.1,1.5,9.2,2.2,10.1,1.2c2.9-3.3-9.7-17.8-7.8-19.4c1.2-1.1,6.1,4.9,15.1,7.8
		c10.1,3.2,21.2,1.2,22.2-2.4c0.7-2.6-4.1-4.3-5.6-11.1c-0.4-1.6-1.3-5.8,0.5-7.1c2.6-1.8,7,4.9,16,6.2c3.8,0.5,7.5-0.4,14.8-2.4
		c8-2.1,12.3-3.3,13.6-6.8c1.5-3.8-1.6-7.9-0.4-8.7c1.4-0.9,4.8,5.5,10.4,6.2c7.2,0.8,14.2-8.3,14.9-7.6c0.3,0.4-2.7,2.5-2.4,5.2
		c0.4,3,4.8,5.8,9,6c5.6,0.2,10.2-4.4,10.7-3.7c0.4,0.5-3.4,3.1-2.8,5.4c0.3,1.3,2.1,2.1,7.4,3.2c8.5,1.8,12.8,2.7,17.2,1.6
		c2.8-0.6,6.5-1.5,9.1-4.6c3.5-4.2,2.4-9.1,4.1-9.4c2.1-0.3,4.9,6.9,6.2,11.5c1.3,4.7,2.5,9.1,0.3,12c-2.3,3.1-6.8,2.5-6.8,4.1
		c-0.1,1.5,4.2,3.8,8.5,3.9c4.6,0.1,7.1-2.3,7.8-1.5c1,1.1-2.5,8.1-9,11.2c-7.7,3.7-16.1,0.5-19.8-1
		C346.8,110.5,347.4,107.3,339.5,103.6z"/>
	<path id="Øre_00000005233250459138179630000010684688584634020785_" class="st4" d="M362.7,78.5c-1.4,1.2-3.4,3.2-5.5,6
		c-7.7,10.5-5.4,18.4-10.8,21.4c-5,2.8-13.7-0.5-15.2-4.9c-0.8-2.5,1.1-5.5,4.9-11.5c2.7-4.2,4-6.3,6.7-8.3c4-2.9,8.3-3.6,10.7-3.7"
		/>
	<path id="Øre_00000080917191742573787630000011981230096295844997_" class="st6" d="M357.4,81.9L357.4,81.9
		c-0.1,0.1-3.2,4.4-5.5,9.4c-2.9,6.5-2.3,10.8-5.9,13.2c-0.4,0.3-1.2,0.8-2.3,0.9c-3.1,0.5-6.4-2.3-6.1-3.2c0.2-0.5,1.4,0,3.1-0.7
		c0.9-0.4,1.9-1.2,4.2-6.4c1.9-4.4,1.6-4.2,2.4-5.5c1.8-2.8,4-4.3,5.2-5.1C354.6,83.1,357.4,81.8,357.4,81.9z"/>
	<path id="Øje_00000145045524538886469750000016296678189362858398_" class="st7" d="M351.8,144.2c-2.9,0.3-6.1-3.4-6.5-7.2
		c-0.3-2.7,0.8-5.7,2.2-5.9c0.5-0.1,0.8,0.5,2.1,1.6c2.7,2.5,3.7,2,4.7,3.5c1.4,2.1,1.4,5.6-0.5,7.1
		C353,144.1,352,144.2,351.8,144.2z"/>
	<path class="st8" d="M350.4,134.2c2.3,1.6,3,1.9,3.5,2.9c0.2,0.4,0.2,0.8,0.3,4.5c0,2.5,0,3.3,0.2,3.3c0.2,0,0.4-0.5,1.4-3.5
		c1.4-4.1,1.3-4.8,1.2-5.3c-0.4-1.7-1.9-2.6-2.5-3.1c-1.2-0.8-1.9-0.8-4.6-1.5c-3.7-0.9-5-1.6-5.1-1.3
		C344.5,130.5,347.4,132.5,350.4,134.2z"/>
	<path class="st8" d="M367.8,187.8c-0.6,0.6-1.8,1.2-2.4,0.8c-1.2-0.6-1.3-4.2,0.5-6.2c1.7-1.9,4.7-2.1,5.1-1.4
		c0.4,0.6-1.5,1.4-2.3,4C368.4,186.3,368.6,187,367.8,187.8z"/>
</g>
<g id="Layer_2_00000178196225430544100180000005740732360231696268_">
	<path id="Hale_00000057114905113746025900000004799213220993206925_" class="st9" d="M659.1,151.6c2,8.8-5.7,19.6-6.1,20.4
		c-1.9,2.6-3,3.3-4.4,6.3c-3,5.8-4,13.5-1.7,14.6c2,1,5.8-3.9,14.7-12.9c14-14.2,27.4-24.9,26.2-26.4c-0.7-0.8-4.3,2.1-7.5,0.5
		c-2.7-1.3-3.4-4.8-3.5-5.3c-1.2-6.4,6.7-11.7,13.4-19.1c13.6-15.4,16.7-34.7,14-36.1c-1.5-0.8-4.7,3.7-7,2.6c-2.2-1.1-2-6.7-0.3-11
		c1.9-4.9,4.4-5.5,7.3-9.9c5.7-8.4,4.8-19.3,3.1-19.7c-0.8-0.2-1.5,2-4.4,6.3c0,0-4.8,7.1-12.4,14c-5.7,5.2-8.2,5.6-15.3,10.4
		c-3.5,2.4-12.9,8.9-20.1,18.3c-4,5.4-15.2,20.2-10.3,31.7C648.2,144.4,657.2,143.1,659.1,151.6z"/>
	<path id="Hov_venstre_bagben_00000031206975408131734940000001816439253304536491_" class="st10" d="M731.1,361.2
		c-3.3-0.9-1.7-7.4-4.9-19c-0.8-2.9-1.3-4.1-0.6-5.3c1.5-2.3,5.5-0.5,14.6-1.6c5-0.6,6.3-1.4,8.6-0.4c2.8,1.3,4.4,4.6,4.5,7.5
		c0.1,2.4-0.9,4.1-1.9,6.1c-2,3.7-4.8,5.9-6.1,6.9c-3.8,2.9-7.3,4-11.2,5.3C732.5,361.2,731.6,361.4,731.1,361.2z"/>
	<path id="Hov_højre_bagben_00000133516129963709484210000003340331251158267265_" class="st10" d="M642,393.9
		c-3.3-0.9-1.7-7.4-4.9-19c-0.8-2.9-1.3-4.1-0.6-5.3c1.5-2.3,5.5-0.5,14.6-1.6c5-0.6,6.3-1.4,8.6-0.4c2.8,1.3,4.4,4.6,4.5,7.5
		c0.1,2.4-0.9,4.1-1.9,6.1c-2,3.7-4.8,5.9-6.1,6.9c-3.8,2.9-7.3,4-11.2,5.3C643.3,393.8,642.5,394.1,642,393.9z"/>
	<path id="Hov_venstre_forben_00000161589612404767434860000010840681540521530497_" class="st10" d="M427.2,424.4
		c-1.6-2.9,4.4-6.4,10.9-16.8c1.6-2.6,2.2-3.8,3.5-4.1c2.8-0.5,4.3,3.4,11.4,8.9c3.9,3,5.5,3.3,6.2,5.5c1,2.8-0.3,6.3-2.4,8.4
		c-1.7,1.7-3.6,2.3-5.9,2.9c-4.2,1.2-7.8,0.9-9.5,0.7c-4.8-0.5-8-2.1-11.7-3.9C428.3,425.2,427.5,424.8,427.2,424.4z"/>
	<path id="Hov_højre_forben_00000030445723971638311450000001884954465616238730_" class="st10" d="M387.6,397.6
		c-1.7-2.8,4-6.6,9.9-17.3c1.5-2.6,1.9-3.9,3.4-4.3c2.7-0.7,4.4,3.2,11.8,8.3c4.1,2.8,5.6,3,6.5,5.2c1.1,2.8,0,6.2-1.9,8.5
		c-1.6,1.9-3.6,2.5-5.7,3.2c-4.2,1.4-7.7,1.2-9.4,1.1c-4.8-0.3-8.2-1.8-11.9-3.4C388.6,398.4,387.8,398,387.6,397.6z"/>
	<path id="Højre_forben_00000028303046866876511040000013354694870256932013_" class="st11" d="M480.7,295.2
		c-2.6,4.8-5.6,6.4-13.4,11.9c-14.3,10.3-12.8,11.4-27.4,21.4c-7.3,5-7.4,4.6-10.2,7.1c-6.2,5.6-7.3,9.6-14.3,19.6
		c-2.5,3.6-6.3,8.8-11.9,15.2c-6.8,7.9-11.9,12.3-10.7,14.4c0.4,0.7,1.2,0.6,8.1,1.9c3.9,0.8,5.9,1.1,6.7,1.4
		c6.3,2.1,7.6,5.9,10.2,5.3c1.7-0.5,2.5-2.6,4-6.4c1.3-3.3,0.7-3.8,1.8-5.6c2.2-3.7,4.6-3.5,6.7-6.4c2.6-3.7,0.4-6.2,1.9-11.6
		c1.4-5.1,4.9-8.2,7.7-10.7c2.4-2.1,4.8-3.7,18.4-9.3c7-2.9,8.3-3.3,12.6-5.1c10.7-4.5,16.1-6.7,20.3-9.4
		c7.9-5.2,20.6-17.8,17.1-29.6c-3.1-10.5-18.2-17.4-23.5-14.2C482.4,286.6,483.6,289.8,480.7,295.2z"/>
	<path id="Højre_bagben_00000005986477204192589860000011770494810597198773_" class="st11" d="M606.4,274.4
		c-2.9-5.9-6-12.1-4.4-18.4c2.1-8.1,11.3-14,19.9-14.9c10.9-1.2,19.2,6,22.4,8.7c8.6,7.4,5.2,11.7,15.1,20.2c0,0,5.2,4.4,10.6,11.2
		c2.3,3,3.6,4.9,3.1,7c-0.6,2.6-3.4,3-7.1,5.6c-5.7,3.9-9.4,9.8-10.6,14.7c-0.5,2.4,0,2.5,1.3,11.8c2,14.3,0.7,13.4,2.2,19.8
		c1.8,7,3.4,8.7,2.2,12.2c-1.3,3.4-4.2,4.9-3.8,8.3c0.2,1.7,1.5,3.7,2.1,4.9c1.4,2.4,1.8,2.3,1.9,3.1c0.1,2.5-5.4,3.8-15.4,8.9
		c-4.5,2.3-5.7,3.3-7.2,2.7c-2.9-1.1-2.8-6.9-2.8-12.3c0.2-13.4,0.3-20.1,0.8-27.6c1-16,1.6-24-0.6-29.3c-2.3-5.5-8.1-15-16.1-21
		c-1.4-1.1-4.9-3.5-8.5-7.9C610.4,280.9,608.3,278.2,606.4,274.4z"/>
	<path id="Body_00000167384489248400572100000003552050000608796831_" class="st12" d="M410.1,203.2c2.1-2.8,7.2-3.5,17.4-5
		c7.9-1.1,15.7-2.2,25.2-1.3c2.8,0.3,9.7,1.2,32.2,10.5c23.5,9.9,27.3,13.6,38.7,14.4c7.9,0.5,13.7-0.9,22-2.8
		c4.9-1.1,14.3-3.6,41.5-17.2c19.6-9.8,19.9-11.1,28.4-13.8c8.8-2.8,19.5-6.1,33.1-4.3c11.5,1.5,19.5,5.9,29.7,11.6
		c8.4,4.7,12.7,7.1,16.4,12c5.9,8.1,6.5,17.6,6.9,23.7c0.8,12.4-2.3,18.7,1.4,21.1c2.4,1.5,6,0.6,13.2-1.3c5.6-1.5,8.1-3,13.1-3
		c3.3,0,5.2,0,6.8,1.2c1.9,1.5,2.9,4.3,0.9,19.5c-1.3,9.4-1.8,10-2.1,15.5c0,1.5-0.3,7.3,0.5,14.8c0.8,6.8,1.1,10.2,2.7,13.8
		c1.6,3.9,3,4.4,9.4,15c1.7,2.8,3,5.1,2.3,7.6c-0.7,2.7-3.4,4.2-4.8,5c-3.8,2.2-5.6,1-10.1,2.9c-4.6,2.1-5,4.5-6.8,4.2
		c-2.8-0.6-3.7-7-5.1-16.2c-0.2-1.3-0.6-3.9-1.3-7.2c-0.4-1.7-0.6-2.4-1.1-4.6c-0.8-3.6-1.4-6.1-1.6-7.1c-1.6-7.4-5.2-14.9-6.9-24.1
		c-2.6-13.8-0.8-17.3-4-19.3c-5.8-3.6-12.5,7.7-28.3,9.1c-11.2,1-30.7-2.6-40.5-14.3c-1.9-2.3-4.5-6-8.7-6.4
		c-4.8-0.4-8.9,3.9-11.3,6.4c-11.6,12.5-19.9,24.6-20.9,26c-12.3,17.7-34.1,23.6-37.9,24.6c-28,7.6-53.2-5.8-65.3-12.1
		c-7-3.7-14.8-8-21.1-16.4c-3.6-4.8-3.9-8.7-10.1-17.5c-5.7-8.3-9-10.5-10.1-11.2c-3.7-2.4-5.6-2.5-7.1-4.9c-2.9-4.7,2-9.3-0.3-12.9
		c-2.6-4.2-10.9-0.3-19.3-2.9C403.5,228.8,392.1,227.5,410.1,203.2z"/>
	<path id="Hoved_00000056402241768884880810000012726700690951909769_" class="st11" d="M427.2,213.1c-6.2-7.1-6.5-12.3-10.3-12.4
		s-6.7,5.2-12,13.9c-3.3,5.5-5.5,9.2-7,14.9c-0.6,2.2-2.9,11.6-0.7,22.1c0,0,0,0.1,2.4,10c0,0,1.6,5.8,2.5,10.9
		c0.4,2.4,1.3,7.5,0.9,13.9c-0.3,6.2-1.3,6.2-0.8,9c1.5,6.6,8.3,10.4,10.6,11.6c2.7,1.5,6.2,3.4,10.8,3.1c1.3-0.1,7.3-0.5,11-5.4
		c2.9-3.9,3.5-9.5,1.3-12.8c-0.9-1.3-1.8-1.7-2.9-3.7l0,0c-1.3-2.2-1.5-5.3-1.5-6.1c-0.2-3.4,7.5-5,14-11.7
		c2.1-2.1,5.2-5.9,7.1-11.2c0.3-0.9,1.5-4.6,1.5-9.9c0-2-0.1-12.2-7.2-21.1C440.5,219.8,435.5,222.6,427.2,213.1z"/>
	<path id="Hoved_00000094586636668909229980000002469310458982283921_" class="st12" d="M426.3,199.9c-5.6-1.5-11,1-12.3,1.7
		c-5,2.4-7.4,6.3-12,13.9c-3.3,5.5-5.5,9.2-7,14.9c-0.6,2.2-2.9,11.6-0.7,22.1c0,0,0,0.1,2.4,10c0,0,1.6,5.8,2.5,10.9
		c0.4,2.4,1.3,7.5,0.9,13.9c-0.3,6.2-1.3,6.2-0.8,9c1.5,6.6,8.3,10.4,10.6,11.6c3.1,1.7,6.5,3.6,10.8,3.1c6.9-0.8,13.4-7,14.2-13.3
		c0.7-5.6-3.5-8.7-1.4-13.9c0.7-1.8,1.5-2.2,4.1-4.9c2.6-2.7,9.2-9.8,12-18.7c0.4-1.1,1.6-5,1.5-9.9c0-7.8-2.9-12.9-7.2-21.1
		C432.7,206.8,432.6,201.7,426.3,199.9z"/>
	<path id="Venstre_forben_00000152946432227444099820000014001982476915541906_" class="st12" d="M439,416.5
		c-2.6-0.9-4.5-1.9-4.5-3.2c0-0.7,0.5-1.1,1.8-2.7c0.3-0.4,0.9-1.4,2.1-3.4c1.6-2.7,8.9-15.5,11.7-21c6.9-13.8,5.3-22.4,13.2-39.1
		c8.2-17.6,14-19,35.1-47.9c0.6-0.8,2-2.7,4.6-4.5c10.4-7.2,25.1-1.5,26.6-0.9c3.7,1.5,8.4,3.4,10.3,7.8c1.7,4,0.4,8.1-0.3,9.8
		c-3.1,8.8-11.4,12.5-35.9,27.5c-9.7,6-14.9,9.4-19.8,15.8c-0.8,1.1-4.3,5.8-7.1,12.8c-2.1,5.2-2.9,9.9-4.5,19.4
		c-1.7,9.9-2.5,14.9-2.5,15.8c0,2.8,0.4,5.2-1.3,7.3c-2,2.6-4.8,2.1-6.8,5.1c-0.6,1-0.8,2.4-1.4,5.2c-0.6,2.9-0.5,3.9-1.2,4.1
		c-1.2,0.5-2.5-1.9-5.5-3.8C449.4,417.8,446.9,419.4,439,416.5z"/>
	<path id="Man_00000146494838236164480090000010295237402424027539_" class="st9" d="M400,231.9c-3,2.4-9.9,7.8-18.2,6.7
		c-7-0.8-12.4-6-11.8-7.3c0.4-0.9,3.5,0.5,7.8-1c4-1.4,7.3-4.6,6.7-6c-0.6-1.4-4.5,0.5-7.6-1.6c-2.9-2-3.2-6.2-3.4-10.8
		c-0.2-4.5,0.3-11.7,2.3-12.1c1.7-0.3,2.1,4.5,6.7,7.2c3.4,2,7.1,1.7,9.9,1.4c4.5-0.4,8.2-2.4,15.6-6.6c4.5-2.6,6-3.7,5.9-5
		c-0.1-2.2-4.5-3.3-4.3-3.9c0.3-0.7,5.9,2,11.1,0.1c3.9-1.4,7.2-5.3,6.6-8.1c-0.5-2.5-4-3.5-3.8-4c0.4-0.8,9.7,5.2,16.2,2.3
		c5.1-2.2,6.2-9,7.9-8.6c1.4,0.3-0.3,5,2.3,7.9c2.3,2.7,6.7,2.5,14.8,2c7.4-0.4,11.1-0.7,14.5-2.3c8-3.8,10.1-11.1,13.1-10.2
		c2.1,0.7,2.5,4.7,2.6,6.2c0.7,6.6-3.3,9.5-1.9,11.6c2,2.9,13.1,1.4,21.5-4.4c7.5-5.2,10.3-12,11.7-11.4c2.3,0.9-5,17.5-1.3,19.6
		c1.2,0.6,3.8-0.9,9.1-4c8-4.7,9.5-6.9,11.1-6.3c3.1,1.1,3.3,10.7,0.8,18.6c-0.7,2.2-6.6,20.3-20.3,23c-13,2.6-17.2-12.1-42-16.3
		c-3.5-0.6-9.9-1-22.8-1.9c-11.5-0.7-17.4-1.1-20.9-0.7c-4.5,0.5-18.2,2.2-28.1,11.7C405.5,223.7,407,226.4,400,231.9z"/>
	<path id="Øre_00000049915936330537831330000003850852921089130686_" class="st12" d="M390.7,199c2.7-0.5,6.5-1.2,11.1,0.1
		c3.1,0.9,5,2.4,8.8,5.4c5.5,4.2,8.1,6.3,8.1,8.8c0,4.4-7.2,9.9-12.7,8.9c-6.7-1.1-6-10.6-16.6-15.9c-3.5-1.8-7-2.4-6.9-3.7
		C382.6,200.5,389.4,199.2,390.7,199z"/>
	<path id="Øre_00000173865286938754827890000009900730846362879644_" class="st11" d="M393.9,204.9c1.3,0.3,3.9,1,6.4,3
		c1.1,0.9,0.8,0.8,3.9,4.2c3.7,4,4.9,4.4,5.8,4.5c1.8,0.2,2.8-0.7,3.1-0.3c0.6,0.8-1.6,4.2-4.7,4.7c-1,0.2-2,0-2.4-0.1
		c-4.1-1.1-4.9-5.1-9.6-10c-3.6-3.8-7.8-6.7-8-6.8l0,0C388.4,203.9,391.4,204.2,393.9,204.9z"/>
	<path id="Øje_00000062873396917493897410000004292436300827702704_" class="st7" d="M410.6,257.7c-2.2-0.8-3.3-3.9-2.6-6.2
		c0.5-1.6,1.6-1.5,3.3-4.5c0.8-1.4,0.9-1.9,1.5-2.1c1.3-0.2,3.3,2.1,3.8,4.6c0.8,3.4-1.2,7.7-3.9,8.3
		C412.5,257.9,411.5,258.1,410.6,257.7z"/>
	<path class="st11" d="M415,243.2c-0.2-0.2-1.2,0.8-4.4,2.7c-2.3,1.5-3,1.7-3.8,2.7c-0.5,0.6-1.5,1.8-1.4,3.5c0,0.5,0.2,1.2,2.7,4.4
		c1.9,2.4,2.2,2.8,2.4,2.7s0-0.7-0.8-3c-1-3.3-1.1-3.6-1-4.1c0.1-1.1,0.7-1.6,2.3-3.6C413.1,246.1,415.3,243.5,415,243.2z"/>
	<path class="st11" d="M409.3,299.2c-1.5-2.1-3.6-2.2-3.4-2.9c0.2-0.7,3.1-1.4,5.2-0.3c2.3,1.2,3.3,4.4,2.3,5.4
		c-0.5,0.5-1.7,0.4-2.5,0C410,300.9,409.9,300.2,409.3,299.2z"/>
</g>
</svg>
