<?xml version="1.0" encoding="UTF-8"?>
<svg id="Layer_1" data-name="Layer 1" xmlns="http://www.w3.org/2000/svg" viewBox="0 0 431.71 431.71">
  <defs>
    <style>
      .cls-1 {
        fill: #fff;
      }

      .cls-2 {
        fill: none;
      }

      .cls-3 {
        fill: #7a6b40;
      }
    </style>
  </defs>
  <circle class="cls-3" cx="215.86" cy="215.86" r="215.86"/>
  <g>
    <path id="Path_101" data-name="Path 101" class="cls-1" d="m196.36,118.41s-14.08-2.51-15.36,5.01c-1.28,7.53-3.83,13.35,0,16.71,3.83,3.36,8.22,3.77,6.66,6.7s-6.87,6.2-8.69,2.68-.53-12.29-4.38-9.79c-3.85,2.5-1.29,7.53-5.11,8.78-3.89,1.32-8.19-.26-10.25-3.76-2.57-3.76-5.11-6.27-7.68,1.27s0,9.84,0,15.59c.3,7.47-.08,14.96-1.14,22.37-1.43,7.22-7.06,18.22-6.8,22.76s.26,12.05,9.22,9.56c8.96-2.5,20.48-13.8,23.04-16.31s7.68-6.27,5.11,0c-2.42,5.27-3.5,11.04-3.14,16.81.44,2.36.21,4.79-.68,7.02-3.21-1.51-6.69-2.36-10.25-2.51-5.13,0-14.08,1.27-11.51,7.53s5.11,6.27,5.11,11.28-2.57,13.8,2.57,17.57c5.13,3.77,3.83-1.27,5.11,3.76,1.28,5.02,3.83,11.28,7.68,7.53,3.85-3.75,10.25-11.28,5.11-12.54s-8.58-1.52-11.02-6.72c-2.44-5.2-3.98-17.14,0-14.3s14.21,5.35,16.77,10.37,5.11,10.01,9.6,10.66c4.49.65,5.76,6.92,9.6,6.92s3.83-11.28,6.4-10.04,15.36,5.01,19.19,3.76c3.83-1.26,2.57-6.27,3.83-1.27s0,15.05,2.57,18.81c2.57,3.76,10.25,11.28,12.79,15.05,2.55,3.77,10.36,1.27,12.85,0s-2.51-11.03,0-14.93c2.51-3.9,3.78-12.69,6.34-6.4,2.57,6.29,8.96,3.76,10.25,10.04,1.28,6.29,2.4,10.24,7.59,13.28s15.95,3.23,15.05,0c-.9-3.23-7.3-10.76-7.3-18.29s-1.29-28.85-1.29-28.85c0,0-1.29-11.28,6.4,1.27,7.69,12.55,7.68,22.58,12.79,25.1,5.11,2.51,3.83-2.51,5.11,2.51,1.28,5.03-2.57,8.78,2.57,11.28,5.13,2.5,15.36,3.76,16.64-1.27s0-18.81-3.83-23.85c-3.83-5.04-28.14-37.62-37.1-40.14-8.96-2.51-15.36,0-19.19-5.01-2.24-2.97-5.37-5.16-8.96-6.27l-12.79-36.38s6.4,1.27,8.96,0-1.29-3.76-8.96-5.01c-7.67-1.26-24.34-22.58-34.55-23.85s-15.36,1.27-15.36,1.27c0,0,2.57-16.31,0-20.07s-9.6-5.64-9.6-5.64l.02-.04Z"/>
    <path id="Path_102" data-name="Path 102" class="cls-1" d="m134.83,290.46v-62.88c-.07-1.49-1.35-2.64-2.87-2.58-1.43.06-2.57,1.18-2.63,2.58v62.88c.07,1.49,1.35,2.64,2.87,2.58,1.43-.06,2.57-1.18,2.63-2.58h0Z"/>
    <path id="Path_103" data-name="Path 103" class="cls-1" d="m125.66,290.46v-62.88c-.07-1.49-1.35-2.64-2.87-2.58-1.43.06-2.57,1.18-2.63,2.58v62.88c.07,1.49,1.35,2.64,2.87,2.58,1.43-.06,2.57-1.18,2.63-2.58h0Z"/>
    <path id="Path_104" data-name="Path 104" class="cls-1" d="m114.44,226.72l-24.23,10.99c-.72.33-1.04,1.18-.69,1.89.17.36.49.63.88.75l24.23,7.42c.76.23,1.56-.18,1.8-.92.04-.14.07-.28.07-.43v-18.43c0-.78-.65-1.42-1.45-1.42-.21,0-.42.04-.61.13v.02Z"/>
  </g>
  <g>
    <path class="cls-1" d="m56.48,194.79c-1.31-.12-2.42.25-3.31,1.1s-1.68,2.29-2.38,4.3l-.55,1.53c-.94,2.75-2.15,4.74-3.62,5.97-1.47,1.24-3.26,1.76-5.38,1.56-1.73-.16-3.21-.71-4.43-1.67-1.22-.95-2.12-2.23-2.7-3.82-.58-1.59-.77-3.41-.58-5.48.19-2.03.71-3.84,1.58-5.41.87-1.58,2.01-2.83,3.42-3.76l2.78,3.19c-2.13,1.55-3.32,3.73-3.58,6.54-.14,1.58.1,2.87.73,3.86.63.99,1.58,1.54,2.83,1.66,1.11.1,2.04-.24,2.8-1.01.76-.77,1.49-2.15,2.19-4.14l.55-1.53c2.02-5.6,5.3-8.19,9.84-7.78,1.82.17,3.38.76,4.67,1.78,1.29,1.02,2.25,2.38,2.86,4.08.61,1.7.82,3.62.63,5.77-.2,2.21-.82,4.24-1.87,6.09-1.04,1.85-2.43,3.4-4.18,4.66l-2.86-3.29c2.85-2.18,4.41-4.79,4.69-7.84.17-1.85-.12-3.35-.86-4.48-.74-1.14-1.83-1.77-3.26-1.9Z"/>
    <path class="cls-1" d="m37.51,175.89l2.7-9.71c.88-3.15,2.35-5.4,4.42-6.73,2.07-1.34,4.49-1.62,7.27-.85,2.75.76,4.68,2.24,5.79,4.44s1.25,4.84.39,7.93l-1.47,5.29,11.1,3.09-1.28,4.6-28.92-8.04Zm13.13-12.6c-1.56-.43-2.92-.29-4.09.43-1.17.72-1.99,1.93-2.46,3.64l-1.4,5.03,9.97,2.77,1.4-5.03c.48-1.73.42-3.2-.18-4.39-.6-1.2-1.68-2.01-3.24-2.44Z"/>
    <path class="cls-1" d="m59.96,152.47c-1.97-1.02-3.62-2.31-4.96-3.88-1.33-1.57-2.31-3.3-2.94-5.19-.62-1.89-.86-3.86-.7-5.89.16-2.03.73-4.01,1.72-5.92,1.01-1.94,2.29-3.57,3.86-4.87,1.57-1.3,3.31-2.25,5.24-2.84,1.93-.59,3.92-.79,5.97-.61,2.05.18,4.06.78,6.03,1.8,1.95,1.01,3.58,2.29,4.92,3.86,1.33,1.57,2.32,3.3,2.96,5.2.64,1.9.88,3.87.72,5.9-.16,2.03-.74,4.02-1.74,5.96-1.01,1.95-2.29,3.57-3.86,4.87-1.57,1.3-3.31,2.24-5.23,2.82-1.92.58-3.9.78-5.96.59-2.05-.18-4.06-.78-6.03-1.8Zm2.34-4.52c1.95,1.01,3.88,1.5,5.82,1.49,1.93-.01,3.7-.49,5.29-1.42,1.6-.93,2.85-2.28,3.76-4.03.92-1.79,1.3-3.59,1.13-5.42-.17-1.83-.81-3.53-1.91-5.12s-2.62-2.87-4.54-3.87c-1.94-1.01-3.88-1.5-5.82-1.49-1.93.01-3.69.48-5.28,1.4-1.59.92-2.85,2.27-3.77,4.05-.91,1.76-1.28,3.56-1.12,5.4.16,1.84.79,3.55,1.88,5.13,1.09,1.58,2.61,2.87,4.56,3.88Z"/>
    <path class="cls-1" d="m68.41,107.67l6.48-7.89c2.08-2.53,4.32-3.99,6.73-4.4,2.41-.41,4.69.28,6.85,2.05,1.55,1.28,2.57,2.74,3.05,4.4.48,1.66.44,3.36-.14,5.1l14.24,2.73-3.4,4.14-13.16-2.77s-.04.05-.06.07l-3.63,4.42,9.21,7.57-3,3.65-23.19-19.05Zm17.05-6.43c-1.25-1.03-2.54-1.43-3.86-1.22-1.32.22-2.54,1.01-3.67,2.37l-3.43,4.17,7.79,6.4,3.43-4.17c1.14-1.39,1.69-2.75,1.63-4.08-.06-1.33-.69-2.49-1.89-3.48Z"/>
    <path class="cls-1" d="m99.38,80.77l-8.02,6.75-2.75-3.27,19.73-16.6,2.75,3.27-8.02,6.75,16.57,19.7-3.68,3.1-16.57-19.7Z"/>
    <path class="cls-1" d="m141.91,72.86c-.65-1.15-1.58-1.84-2.79-2.09-1.21-.25-2.84-.08-4.89.5l-1.57.43c-2.79.79-5.12.94-6.97.44-1.85-.5-3.31-1.68-4.36-3.53-.86-1.51-1.25-3.04-1.16-4.59.09-1.55.62-3.02,1.59-4.4.98-1.38,2.36-2.58,4.16-3.61,1.77-1.01,3.56-1.61,5.35-1.79,1.79-.19,3.47.03,5.03.66l-1.03,4.11c-2.49-.86-4.96-.6-7.41.8-1.38.79-2.3,1.72-2.75,2.81-.45,1.09-.37,2.18.25,3.27.55.97,1.36,1.54,2.43,1.73,1.07.19,2.62,0,4.65-.57l1.57-.43c5.75-1.54,9.75-.33,12,3.64.9,1.59,1.31,3.21,1.2,4.85-.1,1.64-.67,3.2-1.72,4.68s-2.5,2.74-4.38,3.81c-1.93,1.1-3.95,1.74-6.06,1.94-2.11.2-4.18-.06-6.21-.77l1.07-4.23c3.42,1.1,6.46.89,9.12-.62,1.62-.92,2.68-2.01,3.19-3.26.51-1.26.41-2.51-.3-3.76Z"/>
    <path class="cls-1" d="m146.69,46.43l9.66-3.34c3.09-1.07,5.77-1.14,8.04-.23,2.27.91,3.86,2.69,4.77,5.33.66,1.9.76,3.68.3,5.35-.46,1.67-1.38,3.09-2.79,4.27l10.71,9.77-5.06,1.75-9.76-9.24s-.06.02-.08.03l-5.4,1.87,3.89,11.27-4.47,1.54-9.8-28.37Zm17.9,3.43c-.53-1.53-1.41-2.55-2.65-3.06-1.24-.51-2.69-.47-4.37.1l-5.1,1.76,3.29,9.53,5.1-1.76c1.7-.59,2.88-1.46,3.52-2.62.65-1.16.72-2.48.21-3.95Z"/>
    <path class="cls-1" d="m177.99,37.08l4.77-.94,5.81,29.45-4.77.94-5.81-29.45Z"/>
    <path class="cls-1" d="m195.38,33.86l10.21-.43c5.19-.22,9.26.91,12.24,3.38,2.97,2.47,4.56,6.08,4.76,10.81.2,4.74-1.08,8.5-3.85,11.29-2.77,2.79-6.74,4.29-11.93,4.51l-10.16.43-1.27-29.99Zm22.12,14.06c-.15-3.45-1.25-6.05-3.3-7.81-2.06-1.76-4.93-2.56-8.61-2.41l-5.17.22.9,21.45,5.22-.22c3.69-.16,6.47-1.2,8.36-3.15,1.88-1.94,2.75-4.63,2.61-8.08Z"/>
    <path class="cls-1" d="m234.47,33.86l19.04,2.93-.64,4.18-14.28-2.2-1.25,8.14,10.81,1.66-.62,4.05-10.81-1.66-1.4,9.12,15.34,2.36-.64,4.18-20.1-3.1,4.57-29.67Z"/>
    <path class="cls-1" d="m266.35,39.91l4.58,1.62-4.65,13.2,16.41-9.05,5.22,1.84-14.35,7.82,5.81,20.99-5.43-1.92-4.56-17.12-4.96,2.69-3.47,9.85-4.58-1.62,9.98-28.31Z"/>
    <path class="cls-1" d="m298.93,52.89l4.21,2.43-12.84,22.31,13.3,7.66-2.13,3.7-17.51-10.08,14.98-26.01Z"/>
    <path class="cls-1" d="m312.74,82.72l11.95-14.05,3.7,3.15-11.93,14.02c-3.42,4.02-3.27,7.62.46,10.79,3.75,3.19,7.33,2.77,10.75-1.25l11.93-14.02,3.7,3.15-11.96,14.05c-2.53,2.97-5.3,4.58-8.33,4.82-3.02.24-6.01-.89-8.96-3.4-2.92-2.49-4.51-5.24-4.75-8.27-.24-3.02.9-6.02,3.42-8.99Z"/>
    <path class="cls-1" d="m352.42,94.21l6.61,8.31c1.83,2.3,2.75,4.48,2.76,6.54,0,2.06-.87,3.79-2.63,5.19-1.34,1.06-2.78,1.64-4.31,1.73-1.54.09-2.9-.29-4.08-1.15.95,1.82,1.24,3.59.9,5.32-.35,1.73-1.31,3.22-2.88,4.47-2.07,1.64-4.28,2.13-6.63,1.45-2.36-.68-4.67-2.45-6.95-5.31l-6.27-7.89,23.5-18.68Zm-6.34,26.37c1.27-1.01,1.88-2.23,1.85-3.68-.04-1.45-.72-3-2.04-4.67l-3.33-4.19-7.61,6.05,3.3,4.16c2.78,3.5,5.39,4.28,7.84,2.34Zm11.08-12.31c.04-1.11-.42-2.27-1.4-3.49l-3.53-4.44-6.69,5.32,3.19,4.02c1.03,1.29,2.17,2.06,3.42,2.31,1.25.25,2.41-.05,3.46-.89.99-.78,1.5-1.73,1.54-2.83Z"/>
    <path class="cls-1" d="m372.43,121.39l4.97,9.39c1.38,2.6,1.88,4.91,1.51,6.94-.37,2.03-1.55,3.57-3.54,4.62-1.51.8-3.03,1.1-4.56.91-1.53-.19-2.79-.82-3.8-1.88.6,1.96.56,3.76-.1,5.4-.66,1.64-1.88,2.93-3.65,3.87-2.33,1.24-4.6,1.3-6.79.21-2.19-1.1-4.15-3.26-5.86-6.5l-4.72-8.91,26.53-14.04Zm-11.08,24.76c1.43-.76,2.26-1.85,2.49-3.28.23-1.43-.16-3.08-1.15-4.97l-2.5-4.73-8.59,4.55,2.48,4.69c2.09,3.95,4.52,5.2,7.27,3.74Zm13.15-10.07c.24-1.08,0-2.31-.73-3.69l-2.65-5.01-7.56,4,2.4,4.53c.77,1.46,1.75,2.43,2.94,2.9,1.18.48,2.37.4,3.57-.23,1.11-.59,1.79-1.42,2.04-2.5Z"/>
    <path class="cls-1" d="m387.05,151.73l5.78,18.37-4.04,1.27-4.34-13.78-7.86,2.47,3.28,10.43-3.91,1.23-3.28-10.43-8.8,2.77,4.66,14.81-4.03,1.27-6.11-19.4,28.63-9.01Z"/>
    <path class="cls-1" d="m395.86,183.26l.5,4.65-20.66,18.25,22.37-2.41.51,4.7-29.84,3.21-.5-4.61,20.75-18.3-22.46,2.42-.51-4.7,29.84-3.21Z"/>
  </g>
  <g>
    <path class="cls-1" d="m120.7,360.8c0-1.41-.5-2.57-1.51-3.47-1.01-.9-2.57-1.6-4.7-2.11l-1.48-.36c-2.91-.69-5.05-1.7-6.41-3.04s-2.05-3.05-2.05-5.15c0-2.58.91-4.63,2.72-6.17,1.82-1.53,4.22-2.29,7.22-2.29,4.11,0,7.21,1.4,9.32,4.19l-2.7,2.52c-1.71-2.04-4-3.06-6.88-3.06-1.74,0-3.11.4-4.12,1.19s-1.51,1.9-1.51,3.31c0,1.2.45,2.18,1.35,2.95.9.76,2.43,1.4,4.59,1.91l1.49.36c2.85.69,5.02,1.8,6.5,3.33,1.48,1.53,2.23,3.42,2.23,5.67,0,1.8-.44,3.38-1.33,4.75s-2.12,2.43-3.69,3.19c-1.58.77-3.41,1.15-5.51,1.15s-4.24-.45-6.14-1.35c-1.91-.9-3.55-2.19-4.93-3.87l2.83-2.57c2.37,2.76,5.11,4.14,8.24,4.14,1.98,0,3.55-.47,4.72-1.42,1.17-.94,1.75-2.21,1.75-3.8Z"/>
    <path class="cls-1" d="m130.65,338.93h4.05v30.01h-4.05v-30.01Z"/>
    <path class="cls-1" d="m141.72,338.93h4.05v26.42h15.79v3.6h-19.84v-30.01Z"/>
    <path class="cls-1" d="m166.38,338.93h4.05v14.44l13.32-14.44h4.63l-11.16,12.15,12.6,17.87h-4.82l-10.57-15.12-4.01,4.37v10.75h-4.05v-30.01Z"/>
    <path class="cls-1" d="m193.96,338.93h18.77v3.6h-14.72v9.04h11.12v3.6h-11.12v10.17h15.8v3.6h-19.85v-30.01Z"/>
    <path class="cls-1" d="m219.34,338.93h10.08c2.85,0,5.07.64,6.66,1.91,1.59,1.28,2.38,3.02,2.38,5.24,0,1.71-.45,3.2-1.35,4.48-.9,1.28-2.06,2.12-3.46,2.54,2.01.39,3.58,1.26,4.72,2.61,1.14,1.35,1.71,3.05,1.71,5.09,0,2.64-.97,4.66-2.9,6.05-1.93,1.4-4.72,2.09-8.35,2.09h-9.5v-30.01Zm13.86,4.66c-.9-.76-2.16-1.15-3.78-1.15h-6.17v9.13h5.54c1.77,0,3.17-.44,4.21-1.33,1.03-.88,1.55-2.05,1.55-3.49,0-1.35-.45-2.41-1.35-3.17Zm2.83,16.85c0-1.74-.62-3.08-1.84-4.03-1.23-.95-3-1.42-5.31-1.42h-5.62v10.44h5.58c4.8,0,7.2-1.67,7.2-5Z"/>
    <path class="cls-1" d="m244.13,353.92c0-2.22.39-4.27,1.17-6.17.78-1.89,1.87-3.55,3.26-5,1.39-1.44,3.01-2.56,4.86-3.35,1.84-.79,3.83-1.19,5.96-1.19s4.12.41,5.99,1.22c1.86.81,3.49,1.93,4.88,3.35,1.4,1.43,2.48,3.09,3.26,5,.78,1.91,1.17,3.97,1.17,6.19s-.39,4.24-1.17,6.14c-.78,1.91-1.87,3.57-3.26,5-1.39,1.43-3.01,2.54-4.86,3.35-1.84.81-3.83,1.21-5.96,1.21s-4.16-.4-6.01-1.21c-1.85-.81-3.47-1.93-4.86-3.35-1.4-1.42-2.48-3.1-3.26-5.02-.78-1.92-1.17-3.97-1.17-6.17Zm4.28,0c0,2.31.48,4.38,1.44,6.21.96,1.83,2.27,3.26,3.94,4.3s3.55,1.55,5.65,1.55,4.02-.52,5.67-1.55c1.65-1.04,2.95-2.46,3.89-4.28.95-1.81,1.42-3.88,1.42-6.19s-.47-4.37-1.42-6.19c-.94-1.81-2.24-3.25-3.89-4.3-1.65-1.05-3.54-1.58-5.67-1.58s-3.98.52-5.65,1.55-2.98,2.46-3.94,4.27c-.96,1.82-1.44,3.88-1.44,6.19Z"/>
    <path class="cls-1" d="m280.45,338.93h9.63c3.21,0,5.73.78,7.56,2.34,1.83,1.56,2.75,3.72,2.75,6.48,0,2.01-.5,3.71-1.51,5.11-1.01,1.4-2.41,2.41-4.21,3.04l7.15,13.05h-4.54l-6.52-12.38h-6.35v12.38h-3.96v-30.01Zm15.84,8.86c0-1.71-.54-3.04-1.62-4-1.08-.96-2.57-1.44-4.46-1.44h-5.81v10.8h5.81c1.92,0,3.41-.47,4.48-1.42,1.06-.94,1.6-2.26,1.6-3.94Z"/>
    <path class="cls-1" d="m321.4,353.83h10.4v11.83c-1.32,1.23-3.01,2.21-5.06,2.92-2.06.72-4.19,1.08-6.41,1.08-3.03,0-5.72-.66-8.06-1.98-2.34-1.32-4.16-3.16-5.47-5.51-1.3-2.35-1.96-5.06-1.96-8.12s.65-5.78,1.96-8.17c1.31-2.38,3.1-4.26,5.38-5.62,2.28-1.37,4.88-2.05,7.79-2.05,2.43,0,4.63.5,6.62,1.51,1.98,1.01,3.64,2.47,5,4.39l-2.93,2.43c-2.1-3.09-5-4.63-8.68-4.63-2.1,0-3.97.52-5.6,1.55-1.64,1.04-2.92,2.46-3.85,4.27-.93,1.82-1.39,3.91-1.39,6.28s.47,4.46,1.42,6.26c.95,1.8,2.27,3.2,3.98,4.21,1.71,1.01,3.71,1.51,5.99,1.51,2.79,0,5.26-.71,7.42-2.12v-6.53h-6.53v-3.51Z"/>
  </g>
  <line class="cls-2" x1="-23.75" y1="174.75" x2="474.06" y2="176.74"/>
</svg>